<svg width="59" height="19" viewBox="0 0 59 19" fill="none" xmlns="http://www.w3.org/2000/svg">
<path fill-rule="evenodd" clip-rule="evenodd" d="M51.2679 14.7447C51.5819 15.0586 51.7502 15.4551 51.7502 16.1264C51.7502 17.5291 50.8435 18.1841 49.2176 18.1841H46.0776V16.786H49.2051C49.5109 16.786 49.7276 16.7467 49.8634 16.6242C49.9743 16.5237 50.0539 16.3768 50.0539 16.1988C50.0539 16.0089 49.9679 15.8581 49.8572 15.7677C49.7339 15.6681 49.5637 15.6229 49.2832 15.6229C47.7753 15.5733 45.8872 15.6681 45.8872 13.6045C45.8872 12.6586 46.5023 11.6628 48.1921 11.6628H51.4243V13.0511H48.4671C48.1735 13.0511 47.9831 13.0615 47.8208 13.1686C47.6445 13.2743 47.5789 13.431 47.5789 13.6379C47.5789 13.884 47.7289 14.0511 47.9318 14.1237C48.1019 14.1811 48.2843 14.1974 48.5593 14.1974L49.4271 14.2201C50.302 14.2407 50.9027 14.3874 51.2679 14.7447Z" fill="#2E77BC"/>
<path fill-rule="evenodd" clip-rule="evenodd" d="M57.368 14.7447C57.6819 15.0586 57.8503 15.4551 57.8503 16.1264C57.8503 17.5291 56.9436 18.1841 55.3174 18.1841H52.1777V16.786H55.3051C55.611 16.786 55.8274 16.7467 55.9634 16.6242C56.0743 16.5237 56.154 16.3768 56.154 16.1988C56.154 16.0089 56.068 15.8581 55.9574 15.7677C55.8338 15.6681 55.6638 15.6229 55.3832 15.6229C53.8753 15.5733 51.9873 15.6681 51.9873 13.6045C51.9873 12.6586 52.6022 11.6628 54.2922 11.6628H57.5244V13.0511H54.5669C54.2736 13.0511 54.0832 13.0615 53.9209 13.1686C53.7445 13.2743 53.679 13.431 53.679 13.6379C53.679 13.884 53.829 14.0511 54.0319 14.1237C54.2018 14.1811 54.3844 14.1974 54.6591 14.1974L55.5272 14.2201C56.4019 14.2407 57.0028 14.3874 57.368 14.7447Z" fill="#2E77BC"/>
<path fill-rule="evenodd" clip-rule="evenodd" d="M39.7314 11.6627H45.1121V13.0116H41.3368V14.1972H45.0198V15.5276H41.3368V16.825L45.1121 16.831V18.1842H39.7314V11.6627Z" fill="#2E77BC"/>
<path fill-rule="evenodd" clip-rule="evenodd" d="M37.6952 15.1535C38.0536 15.2817 38.3473 15.511 38.4847 15.701C38.7125 16.0193 38.7454 16.3166 38.7517 16.8915V18.1842H37.1334V17.3682C37.1334 16.9761 37.1723 16.3949 36.8729 16.0919C36.6373 15.8582 36.2781 15.8023 35.6898 15.8023H33.9672V18.1842H32.3472V11.6627H36.0691C36.8852 11.6627 37.4796 11.6975 38.0089 11.9706C38.5178 12.2676 38.8378 12.6747 38.8378 13.4186C38.8376 14.4595 38.1195 14.9906 37.6952 15.1535ZM36.7217 14.342C36.5059 14.4656 36.2393 14.4764 35.9253 14.4764H33.9672V13.0117H35.9521C36.2393 13.0117 36.5265 13.0177 36.7217 13.1293C36.9305 13.2349 37.0554 13.4371 37.0554 13.716C37.0554 13.9952 36.9305 14.2199 36.7217 14.342Z" fill="#2E77BC"/>
<path fill-rule="evenodd" clip-rule="evenodd" d="M31.59 13.8111C31.59 15.623 30.1916 15.9969 28.7823 15.9969H26.7708V18.1842H23.6372L21.6519 16.0255L19.5892 18.1842H13.2031V11.6627H19.6872L21.6707 13.8003L23.7214 11.6627H28.8731C30.1524 11.6627 31.59 12.0051 31.59 13.8111ZM28.8546 14.6723H26.771V13.0117H28.8734C29.4554 13.0117 29.8592 13.2411 29.8592 13.8112C29.8592 14.3754 29.474 14.6723 28.8546 14.6723ZM25.1652 17.5911L22.6899 14.9346L25.1652 12.3628V17.5911ZM18.773 16.825H14.8091V15.5276H18.3484V14.1972H14.8091V13.0116H18.8511L20.6144 14.912L18.773 16.825Z" fill="#2E77BC"/>
<path fill-rule="evenodd" clip-rule="evenodd" d="M53.5664 6.96697H51.2821L48.226 2.07346V6.96697H44.943L44.3155 5.51265H40.9665L40.3578 6.96697H38.4711C37.6877 6.96697 36.6956 6.79944 36.1338 6.2458C35.5671 5.69229 35.272 4.9427 35.272 3.75676C35.272 2.78987 35.4484 1.9059 36.1414 1.2074C36.6624 0.687058 37.4787 0.447144 38.5895 0.447144H40.1505V1.84417H38.6223C38.0341 1.84417 37.7019 1.92872 37.3819 2.23058C37.1069 2.50491 36.9183 3.02389 36.9183 3.70727C36.9183 4.40578 37.062 4.90965 37.3618 5.23835C37.6101 5.49635 38.0608 5.57469 38.4852 5.57469H39.2092L41.4817 0.447331H43.8971L46.6269 6.61417V0.447331H49.0812L51.9151 4.98829V0.447331H53.5664V6.96697ZM43.7102 4.15371L42.6069 1.55468L41.5095 4.15371H43.7102Z" fill="#2E77BC"/>
<path fill-rule="evenodd" clip-rule="evenodd" d="M32.8379 0.447144H34.4828V6.96697H32.8379V0.447144Z" fill="#2E77BC"/>
<path fill-rule="evenodd" clip-rule="evenodd" d="M31.9024 2.20305C31.9024 3.24278 31.1848 3.77956 30.7664 3.94087C31.1191 4.07059 31.4205 4.30002 31.564 4.4899C31.7915 4.81427 31.8307 5.10387 31.8307 5.68623V6.96697H30.2046L30.1985 6.14479C30.1985 5.75247 30.2374 5.18828 29.9441 4.87459C29.7086 4.64531 29.3494 4.59553 28.7691 4.59553H27.0385V6.96697H25.4263V0.447144H29.1346C29.9583 0.447144 30.5656 0.468384 31.0865 0.759421C31.5965 1.05086 31.9024 1.47583 31.9024 2.20305ZM29.7942 3.1187C29.5727 3.24871 29.3107 3.25289 28.9968 3.25289H27.0383V1.8048H29.0234C29.3041 1.8048 29.5974 1.8172 29.7879 1.9224C29.9971 2.01759 30.1265 2.21956 30.1265 2.49879C30.1265 2.78375 30.0031 3.01324 29.7942 3.1187Z" fill="#2E77BC"/>
<path fill-rule="evenodd" clip-rule="evenodd" d="M24.3097 6.96697H18.9238V0.447144H24.3097V1.80484H20.5364V2.98004H24.2191V4.31647H20.5364V5.61856H24.3097V6.96697Z" fill="#2E77BC"/>
<path fill-rule="evenodd" clip-rule="evenodd" d="M17.7221 6.96684H16.0693L16.0631 1.86055L13.7253 6.96684H12.3097L9.96622 1.85603V6.96684H6.68713L6.06767 5.51253H2.71096L2.08518 6.96684H0.333984L3.22118 0.447021H5.61624L8.35837 6.61996V0.447021H10.9894L13.0993 4.86999L15.0376 0.447021H17.7217V6.96684H17.7221ZM5.48522 4.15359L4.38197 1.55456L3.28462 4.15359H5.48522Z" fill="#2E77BC"/>
</svg>
