<svg width="30" height="23" viewBox="0 0 30 23" fill="none" xmlns="http://www.w3.org/2000/svg">
<path d="M5.50525 22.2696V20.7881C5.50525 20.2203 5.1518 19.85 4.54589 19.85C4.24294 19.85 3.91474 19.9488 3.68752 20.2698C3.5108 19.9981 3.25834 19.85 2.87963 19.85C2.62718 19.85 2.37472 19.9241 2.17276 20.1956V19.8995H1.64258V22.2696H2.17276V20.961C2.17276 20.5413 2.39996 20.3439 2.75341 20.3439C3.10685 20.3439 3.28358 20.5659 3.28358 20.961V22.2696H3.81376V20.961C3.81376 20.5413 4.06621 20.3439 4.39441 20.3439C4.74785 20.3439 4.92458 20.5659 4.92458 20.961V22.2696H5.50525ZM13.3568 19.8995H12.4984V19.1834H11.9683V19.8995H11.4886V20.3685H11.9683V21.4548C11.9683 21.998 12.1955 22.3189 12.8014 22.3189C13.0286 22.3189 13.2811 22.2448 13.4577 22.146L13.3063 21.7018C13.1549 21.8004 12.9781 21.8252 12.8519 21.8252C12.5994 21.8252 12.4984 21.677 12.4984 21.4301V20.3685H13.3568V19.8995ZM17.8506 19.85C17.5476 19.85 17.3457 19.9981 17.2195 20.1956V19.8995H16.6892V22.2696H17.2195V20.9364C17.2195 20.5413 17.3962 20.3191 17.7244 20.3191C17.8253 20.3191 17.9516 20.3439 18.0526 20.3685L18.2041 19.8747C18.103 19.85 17.9516 19.85 17.8506 19.85ZM11.0594 20.0969C10.8069 19.9241 10.4535 19.85 10.0748 19.85C9.46889 19.85 9.06496 20.1463 9.06496 20.6154C9.06496 21.0104 9.3679 21.2326 9.89807 21.3067L10.1505 21.3313C10.4282 21.3808 10.5797 21.4548 10.5797 21.5782C10.5797 21.7511 10.3778 21.8745 10.0243 21.8745C9.67087 21.8745 9.39316 21.7511 9.21643 21.6276L8.96397 22.0226C9.24168 22.2202 9.62037 22.3189 9.99907 22.3189C10.706 22.3189 11.1099 21.9979 11.1099 21.5535C11.1099 21.1339 10.7817 20.9117 10.2768 20.8376L10.0243 20.8129C9.79709 20.7881 9.62037 20.7388 9.62037 20.5907C9.62037 20.4178 9.79709 20.3191 10.0748 20.3191C10.3778 20.3191 10.6807 20.4425 10.8322 20.5166L11.0594 20.0969ZM25.1468 19.85C24.8438 19.85 24.6419 19.9981 24.5156 20.1956V19.8995H23.9854V22.2696H24.5156V20.9364C24.5156 20.5413 24.6923 20.3191 25.0205 20.3191C25.1215 20.3191 25.2477 20.3439 25.3487 20.3685L25.5002 19.8747C25.3993 19.85 25.2477 19.85 25.1468 19.85ZM18.3807 21.0845C18.3807 21.8004 18.8858 22.3189 19.6684 22.3189C20.0219 22.3189 20.2742 22.2448 20.5268 22.0474L20.2743 21.6276C20.0723 21.7757 19.8703 21.8499 19.6431 21.8499C19.2139 21.8499 18.9109 21.5535 18.9109 21.0845C18.9109 20.6401 19.2139 20.3439 19.6431 20.3191C19.8703 20.3191 20.0723 20.3932 20.2743 20.5413L20.5268 20.1217C20.2742 19.9241 20.0219 19.85 19.6684 19.85C18.8858 19.85 18.3807 20.3685 18.3807 21.0845ZM23.2786 21.0845V19.8995H22.7483V20.1956C22.5716 19.9734 22.3192 19.85 21.991 19.85C21.3094 19.85 20.7792 20.3685 20.7792 21.0845C20.7792 21.8004 21.3094 22.3189 21.991 22.3189C22.3445 22.3189 22.5969 22.1955 22.7483 21.9733V22.2696H23.2786V21.0845ZM21.3346 21.0845C21.3346 20.6647 21.6122 20.3191 22.0667 20.3191C22.4959 20.3191 22.7988 20.6401 22.7988 21.0845C22.7988 21.5042 22.4959 21.8499 22.0667 21.8499C21.6122 21.8252 21.3346 21.5042 21.3346 21.0845ZM14.9978 19.85C14.2909 19.85 13.786 20.3439 13.786 21.0845C13.786 21.8252 14.2909 22.3189 15.0231 22.3189C15.3766 22.3189 15.7299 22.2202 16.0076 21.9979L15.7552 21.6276C15.5532 21.7757 15.3008 21.8745 15.0482 21.8745C14.7201 21.8745 14.3919 21.7264 14.3161 21.3067H16.1087V21.1091C16.1339 20.3439 15.6794 19.85 14.9978 19.85ZM14.9978 20.2944C15.3259 20.2944 15.5532 20.492 15.6038 20.8623H14.3414C14.3919 20.5413 14.6191 20.2944 14.9978 20.2944ZM28.1511 21.0845V18.9612H27.6209V20.1956C27.4441 19.9734 27.1917 19.85 26.8636 19.85C26.1819 19.85 25.6517 20.3685 25.6517 21.0845C25.6517 21.8004 26.1819 22.3189 26.8636 22.3189C27.2169 22.3189 27.4694 22.1955 27.6209 21.9733V22.2696H28.1511V21.0845ZM26.2071 21.0845C26.2071 20.6647 26.4848 20.3191 26.9392 20.3191C27.3685 20.3191 27.6713 20.6401 27.6713 21.0845C27.6713 21.5042 27.3685 21.8499 26.9392 21.8499C26.4848 21.8252 26.2071 21.5042 26.2071 21.0845ZM8.4843 21.0845V19.8995H7.95412V20.1956C7.7774 19.9734 7.52494 19.85 7.19674 19.85C6.51509 19.85 5.98492 20.3685 5.98492 21.0845C5.98492 21.8004 6.51509 22.3189 7.19674 22.3189C7.55018 22.3189 7.80265 22.1955 7.95412 21.9733V22.2696H8.4843V21.0845ZM6.51509 21.0845C6.51509 20.6647 6.7928 20.3191 7.24723 20.3191C7.67641 20.3191 7.97937 20.6401 7.97937 21.0845C7.97937 21.5042 7.67641 21.8499 7.24723 21.8499C6.7928 21.8252 6.51509 21.5042 6.51509 21.0845Z" fill="black"/>
<path d="M18.8358 1.90112H10.8833V15.875H18.8358V1.90112Z" fill="#FF5F00"/>
<path d="M11.3879 8.88803C11.3879 6.04881 12.7512 3.53053 14.8466 1.90105C13.3065 0.715984 11.3626 0 9.24194 0C4.21796 0 0.15332 3.97492 0.15332 8.88803C0.15332 13.8012 4.21796 17.7761 9.24194 17.7761C11.3626 17.7761 13.3065 17.0601 14.8466 15.875C12.7512 14.2702 11.3879 11.7273 11.3879 8.88803Z" fill="#EB001B"/>
<path d="M29.5653 8.88803C29.5653 13.8012 25.5007 17.7761 20.4767 17.7761C18.356 17.7761 16.412 17.0601 14.8721 15.875C16.9927 14.2456 18.3307 11.7273 18.3307 8.88803C18.3307 6.04881 16.9675 3.53053 14.8721 1.90105C16.412 0.715984 18.356 0 20.4767 0C25.5007 0 29.5653 3.99961 29.5653 8.88803Z" fill="#F79E1B"/>
</svg>
