<svg width="73" height="21" viewBox="0 0 73 21" fill="none" xmlns="http://www.w3.org/2000/svg">
<path fill-rule="evenodd" clip-rule="evenodd" d="M72.0893 13.4254H72.1574C72.2333 13.4254 72.2689 13.3693 72.2689 13.2787C72.2689 13.1857 72.2128 13.1541 72.1534 13.1541H72.0893V13.4254ZM71.8907 13.7305V13.7014C71.9622 13.6922 71.9762 13.6951 71.9762 13.6501V13.2222C71.9762 13.1614 71.9695 13.1412 71.8926 13.1445V13.1147H72.1938C72.296 13.1147 72.3919 13.1643 72.3919 13.2682C72.3919 13.3554 72.3345 13.4181 72.2534 13.4431L72.3491 13.5763C72.3948 13.6352 72.4457 13.6922 72.4793 13.712V13.7305H72.3647C72.3102 13.7305 72.2625 13.6166 72.154 13.4646H72.0897V13.6558C72.0897 13.6951 72.1028 13.6922 72.1739 13.7014V13.7305H71.8907ZM72.1825 13.8946C72.4454 13.8946 72.6474 13.6745 72.6474 13.4255C72.6474 13.1766 72.4493 12.954 72.1825 12.954C71.9178 12.954 71.7166 13.1766 71.7166 13.4255C71.7166 13.6745 71.9178 13.8946 72.1825 13.8946ZM72.1827 12.8459C72.5185 12.8459 72.7702 13.1009 72.7702 13.4255C72.7702 13.7503 72.5185 14.0019 72.1827 14.0019C71.8477 14.0019 71.5952 13.7503 71.5952 13.4255C71.5952 13.1009 71.8477 12.8459 72.1827 12.8459Z" fill="#1A1919"/>
<path fill-rule="evenodd" clip-rule="evenodd" d="M70.3322 16.2965C70.3322 16.5166 70.4849 16.5822 70.6601 16.6046C70.8859 16.6216 71.1319 16.6216 71.3857 16.5936C71.6153 16.5674 71.814 16.4345 71.9118 16.2965C71.9994 16.1753 72.0478 16.0224 72.0826 15.9007H72.2416C72.181 16.2146 72.1042 16.5223 72.0376 16.8347C71.5549 16.8347 71.0713 16.8137 70.5897 16.8137C70.106 16.8137 69.6229 16.8347 69.1396 16.8347V16.6695H69.2153C69.4144 16.6695 69.6286 16.643 69.6286 16.3015V13.4797C69.6286 13.1932 69.4144 13.1669 69.2153 13.1669H69.1396V13.0006C69.4302 13.0006 69.7166 13.0226 70.0069 13.0226C70.2872 13.0226 70.5616 13.0006 70.8421 13.0006V13.1669H70.7039C70.4959 13.1669 70.3322 13.1726 70.3322 13.4634V16.2965Z" fill="#1A1919"/>
<path fill-rule="evenodd" clip-rule="evenodd" d="M66.8225 13.6164H66.8121L66.301 15.1708H67.3293L66.8225 13.6164ZM66.021 16.0498C65.9676 16.2358 65.9013 16.3799 65.9013 16.4773C65.9013 16.6429 66.1335 16.6694 66.3122 16.6694H66.3734V16.8347C66.1537 16.8238 65.9291 16.8137 65.7093 16.8137C65.5094 16.8137 65.3131 16.8238 65.1172 16.8347V16.6694H65.1474C65.3623 16.6694 65.5449 16.5429 65.6258 16.3128L66.5056 13.7931C66.5764 13.5891 66.6752 13.3151 66.7078 13.1109C66.8831 13.051 67.1029 12.9411 67.2073 12.8751C67.2241 12.8692 67.2351 12.8645 67.2518 12.8645C67.2672 12.8645 67.2772 12.8645 67.2897 12.8808C67.3065 12.9244 67.3217 12.9743 67.3399 13.0184L68.3497 15.8906C68.4138 16.0823 68.4812 16.2866 68.5522 16.4514C68.6178 16.6047 68.7342 16.6694 68.9151 16.6694H68.9477V16.8347C68.7012 16.8238 68.453 16.8137 68.1905 16.8137C67.9213 16.8137 67.6459 16.8238 67.3662 16.8347V16.6694H67.4271C67.553 16.6694 67.7681 16.6488 67.7681 16.5113C67.7681 16.439 67.7178 16.2913 67.6571 16.1154L67.4439 15.4775H66.1986L66.021 16.0498Z" fill="#1A1919"/>
<path fill-rule="evenodd" clip-rule="evenodd" d="M64.2832 15.7531L64.2941 15.7417V13.6825C64.2941 13.2326 63.9814 13.1669 63.8147 13.1669H63.6968V13.0006C63.9531 13.0006 64.2065 13.0226 64.4637 13.0226C64.6902 13.0226 64.9149 13.0006 65.1391 13.0006V13.1669H65.0571C64.8259 13.1669 64.5676 13.2099 64.5676 13.8632V16.3631C64.5676 16.5553 64.5744 16.7471 64.6007 16.917H64.3919L61.5656 13.7651V16.0273C61.5656 16.5065 61.6586 16.6695 62.082 16.6695H62.1749V16.8347C61.9387 16.8347 61.7036 16.8137 61.467 16.8137C61.2198 16.8137 60.967 16.8347 60.7192 16.8347V16.6695H60.7971C61.1767 16.6695 61.2898 16.4132 61.2898 15.9731V13.66C61.2898 13.3524 61.0389 13.1669 60.7902 13.1669H60.7192V13.0006C60.9286 13.0006 61.1422 13.0226 61.3512 13.0226C61.5153 13.0226 61.6744 13.0006 61.8391 13.0006L64.2832 15.7531Z" fill="#1A1919"/>
<path fill-rule="evenodd" clip-rule="evenodd" d="M58.563 16.6758C59.6296 16.6758 59.8136 15.7366 59.8136 14.9364C59.8136 14.1334 59.3815 13.1615 58.4702 13.1615C57.5098 13.1615 57.2243 14.0182 57.2243 14.7529C57.2243 15.7366 57.6745 16.6758 58.563 16.6758ZM58.4805 12.9194C59.6504 12.9194 60.5835 13.6445 60.5835 14.8148C60.5835 16.0779 59.6778 16.9173 58.5088 16.9173C57.3434 16.9173 56.4565 16.1277 56.4565 14.9456C56.4565 13.8045 57.3392 12.9194 58.4805 12.9194Z" fill="#1A1919"/>
<path fill-rule="evenodd" clip-rule="evenodd" d="M54.6937 16.6695C54.8926 16.6695 55.1006 16.643 55.1006 16.3564V13.4797C55.1006 13.1932 54.8926 13.1669 54.6937 13.1669H54.6172V13.0006C54.8314 13.0006 55.1603 13.0226 55.4289 13.0226C55.7035 13.0226 56.0329 13.0006 56.292 13.0006V13.1669H56.2155C56.0167 13.1669 55.8068 13.1932 55.8068 13.4797V16.3564C55.8068 16.643 56.0167 16.6695 56.2155 16.6695H56.292V16.8347C56.0276 16.8347 55.6991 16.8137 55.4241 16.8137C55.1545 16.8137 54.8314 16.8347 54.6172 16.8347V16.6695H54.6937Z" fill="#1A1919"/>
<path fill-rule="evenodd" clip-rule="evenodd" d="M51.2704 13.2757C50.8582 13.2757 50.8428 13.375 50.7601 13.7755H50.5942C50.6167 13.6217 50.6451 13.4685 50.6608 13.3083C50.6833 13.1551 50.6938 13.0008 50.6938 12.8421H50.8256C50.8697 13.0069 51.0071 13.0008 51.1546 13.0008H53.9872C54.1351 13.0008 54.2715 12.9959 54.2831 12.8311L54.4147 12.8537C54.3938 13.0008 54.3728 13.1493 54.3549 13.2983C54.342 13.4458 54.342 13.5951 54.342 13.7426L54.1787 13.8043C54.1692 13.6003 54.1407 13.2757 53.773 13.2757H52.873V16.1975C52.873 16.6216 53.0657 16.6696 53.3286 16.6696H53.432V16.8348C53.2188 16.8348 52.8347 16.8137 52.5383 16.8137C52.2087 16.8137 51.8238 16.8348 51.6091 16.8348V16.6696H51.7141C52.0172 16.6696 52.1709 16.6431 52.1709 16.21V13.2757H51.2704Z" fill="#1A1919"/>
<path fill-rule="evenodd" clip-rule="evenodd" d="M48.9043 13.6164H48.8931L48.3821 15.1708H49.4084L48.9043 13.6164ZM48.1034 16.0498C48.0477 16.2358 47.9807 16.3799 47.9807 16.4773C47.9807 16.6429 48.213 16.6694 48.3936 16.6694H48.4546V16.8347C48.2337 16.8238 48.009 16.8137 47.7892 16.8137C47.5913 16.8137 47.3946 16.8238 47.1973 16.8347V16.6694H47.2292C47.4434 16.6694 47.6254 16.5429 47.7059 16.3128L48.5853 13.7931C48.6561 13.5891 48.7561 13.3151 48.7883 13.1109C48.964 13.051 49.1839 12.9411 49.2882 12.8751C49.305 12.8692 49.3136 12.8645 49.3319 12.8645C49.3476 12.8645 49.3586 12.8645 49.3707 12.8808C49.387 12.9244 49.4028 12.9743 49.4205 13.0184L50.4301 15.8906C50.4953 16.0823 50.5613 16.2866 50.6323 16.4514C50.6988 16.6047 50.8142 16.6694 50.9951 16.6694H51.0277V16.8347C50.7812 16.8238 50.5335 16.8137 50.271 16.8137C50.0024 16.8137 49.7274 16.8238 49.4483 16.8347V16.6694H49.5086C49.6336 16.6694 49.8482 16.6488 49.8482 16.5113C49.8482 16.439 49.7992 16.2913 49.7371 16.1154L49.524 15.4775H48.2773L48.1034 16.0498Z" fill="#1A1919"/>
<path fill-rule="evenodd" clip-rule="evenodd" d="M46.3632 15.7531L46.3738 15.7417V13.6825C46.3738 13.2326 46.061 13.1669 45.8972 13.1669H45.776V13.0006C46.0353 13.0006 46.2856 13.0226 46.5448 13.0226C46.7704 13.0226 46.995 13.0006 47.2206 13.0006V13.1669H47.1386C46.9077 13.1669 46.6496 13.2099 46.6496 13.8632V16.3631C46.6496 16.5553 46.6543 16.7471 46.6812 16.917H46.4738L43.6473 13.7651V16.0273C43.6473 16.5065 43.7405 16.6695 44.1635 16.6695H44.2568V16.8347C44.0202 16.8347 43.7836 16.8137 43.5481 16.8137C43.3009 16.8137 43.0485 16.8347 42.8018 16.8347V16.6695H42.8768C43.2568 16.6695 43.3717 16.4132 43.3717 15.9731V13.66C43.3717 13.3524 43.1193 13.1669 42.8727 13.1669H42.8018V13.0006C43.0093 13.0006 43.2252 13.0226 43.4327 13.0226C43.5968 13.0226 43.7558 13.0006 43.921 13.0006L46.3632 15.7531Z" fill="#1A1919"/>
<path fill-rule="evenodd" clip-rule="evenodd" d="M40.0806 14.8574H40.3489C40.8981 14.8574 41.1936 14.6495 41.1936 14.0005C41.1936 13.5133 40.8809 13.1988 40.3923 13.1988C40.2266 13.1988 40.1563 13.2167 40.0806 13.2209V14.8574ZM39.3777 13.5833C39.3777 13.1818 39.1579 13.1669 38.9879 13.1669H38.8877V13.0006C39.0637 13.0006 39.404 13.0226 39.7398 13.0226C40.068 13.0226 40.3322 13.0006 40.6239 13.0006C41.3136 13.0006 41.9291 13.1874 41.9291 13.9681C41.9291 14.4621 41.6006 14.7635 41.1671 14.9361L42.1058 16.3398C42.259 16.573 42.3678 16.6372 42.6374 16.6695V16.8347C42.4564 16.8347 42.281 16.8137 42.1001 16.8137C41.9291 16.8137 41.7532 16.8347 41.5839 16.8347C41.1614 16.2808 40.7983 15.6875 40.4416 15.0548H40.0805V16.2304C40.0805 16.6545 40.2772 16.6695 40.5295 16.6695H40.6298V16.8347C40.3154 16.8347 39.997 16.8137 39.6842 16.8137C39.4209 16.8137 39.1633 16.8347 38.8877 16.8347V16.6695H38.9879C39.1899 16.6695 39.3777 16.5773 39.3777 16.3738V13.5833Z" fill="#1A1919"/>
<path fill-rule="evenodd" clip-rule="evenodd" d="M35.5132 16.6695H35.5898C35.7872 16.6695 35.9954 16.643 35.9954 16.3564V13.4797C35.9954 13.1932 35.7872 13.1669 35.5898 13.1669H35.5132V13.0006C35.8465 13.0006 36.4198 13.0226 36.8797 13.0226C37.3413 13.0226 37.9112 13.0006 38.2835 13.0006C38.2748 13.2372 38.2796 13.6001 38.2962 13.8416L38.1301 13.8857C38.1044 13.5292 38.0382 13.2435 37.4615 13.2435H36.7006V14.6812H37.3515C37.6814 14.6812 37.7536 14.4961 37.7852 14.1991H37.9492C37.9386 14.4138 37.9334 14.627 37.9334 14.8412C37.9334 15.051 37.9386 15.2587 37.9492 15.4675L37.7852 15.5002C37.7536 15.1709 37.7368 14.9567 37.3571 14.9567H36.7006V16.2356C36.7006 16.5936 37.0175 16.5936 37.368 16.5936C38.0276 16.5936 38.3174 16.5496 38.4822 15.9232L38.6359 15.9615C38.5646 16.2539 38.4989 16.543 38.4496 16.8347C38.0986 16.8347 37.4668 16.8137 36.9725 16.8137C36.4787 16.8137 35.8254 16.8347 35.5132 16.8347V16.6695Z" fill="#1A1919"/>
<path fill-rule="evenodd" clip-rule="evenodd" d="M32.1914 13.2757C31.7796 13.2757 31.7648 13.375 31.6819 13.7755H31.5171C31.5395 13.6217 31.5665 13.4685 31.5837 13.3083C31.6053 13.1551 31.6163 13.0008 31.6163 12.8421H31.7485C31.7925 13.0069 31.9295 13.0008 32.0779 13.0008H34.91C35.058 13.0008 35.1954 12.9959 35.2065 12.8311L35.3372 12.8537C35.317 13.0008 35.2946 13.1493 35.2778 13.2983C35.2662 13.4458 35.2662 13.5951 35.2662 13.7426L35.1024 13.8043C35.0915 13.6003 35.0636 13.2757 34.6959 13.2757H33.796V16.1975C33.796 16.6216 33.9889 16.6696 34.2513 16.6696H34.3555V16.8348C34.1417 16.8348 33.7565 16.8137 33.4606 16.8137C33.1322 16.8137 32.747 16.8348 32.5324 16.8348V16.6696H32.6369C32.9401 16.6696 33.0923 16.6431 33.0923 16.21V13.2757H32.1914Z" fill="#1A1919"/>
<path fill-rule="evenodd" clip-rule="evenodd" d="M30.514 15.7531L30.525 15.7417V13.6825C30.525 13.2326 30.2118 13.1669 30.0466 13.1669H29.9264V13.0006C30.184 13.0006 30.4374 13.0226 30.695 13.0226C30.9198 13.0226 31.1458 13.0006 31.3695 13.0006V13.1669H31.2879C31.0572 13.1669 30.7985 13.2099 30.7985 13.8632V16.3631C30.7985 16.5553 30.8052 16.7471 30.8315 16.917H30.6232L27.7964 13.7651V16.0273C27.7964 16.5065 27.889 16.6695 28.312 16.6695H28.4052V16.8347C28.1696 16.8347 27.933 16.8137 27.6968 16.8137C27.4516 16.8137 27.1978 16.8347 26.9512 16.8347V16.6695H27.0277C27.4066 16.6695 27.5225 16.4132 27.5225 15.9731V13.66C27.5225 13.3524 27.2686 13.1669 27.0225 13.1669H26.9512V13.0006C27.1591 13.0006 27.3737 13.0226 27.5818 13.0226C27.7466 13.0226 27.9067 13.0006 28.0708 13.0006L30.514 15.7531Z" fill="#1A1919"/>
<path fill-rule="evenodd" clip-rule="evenodd" d="M25.0674 16.6695H25.1444C25.3411 16.6695 25.5506 16.643 25.5506 16.3564V13.4797C25.5506 13.1932 25.3411 13.1669 25.1444 13.1669H25.0674V13.0006C25.282 13.0006 25.611 13.0226 25.8806 13.0226C26.1546 13.0226 26.4835 13.0006 26.7417 13.0006V13.1669H26.6646C26.4677 13.1669 26.2585 13.1932 26.2585 13.4797V16.3564C26.2585 16.643 26.4677 16.6695 26.6646 16.6695H26.7417V16.8347C26.4782 16.8347 26.1483 16.8137 25.8749 16.8137C25.6051 16.8137 25.282 16.8347 25.0674 16.8347V16.6695Z" fill="#1A1919"/>
<path fill-rule="evenodd" clip-rule="evenodd" d="M68.589 9.66055C68.589 10.0445 68.9515 10.6898 69.629 10.6898C70.7089 10.6898 71.1629 9.62938 71.1629 8.73092C71.1629 7.64171 70.3349 6.73348 69.5488 6.73348C69.1734 6.73348 68.8617 6.97597 68.589 7.2093V9.66055ZM68.5896 6.91424C68.9929 6.5725 69.5389 6.18918 70.0931 6.18918C71.2636 6.18918 71.9694 7.20951 71.9694 8.30787C71.9694 9.62938 71.0015 10.9525 69.5572 10.9525C68.8109 10.9525 68.4187 10.7106 68.1556 10.6004L67.853 10.8313L67.6422 10.721C67.7314 10.126 67.7821 9.53889 67.7821 8.92409V4.58484C67.7821 3.92786 67.6318 3.90728 67.248 3.79642V3.63503C67.6528 3.5038 68.0748 3.32305 68.2874 3.20037C68.397 3.14046 68.4784 3.08911 68.5102 3.08911C68.5705 3.08911 68.5896 3.15004 68.5896 3.23154V6.91424Z" fill="#1A1919"/>
<path fill-rule="evenodd" clip-rule="evenodd" d="M66.5828 10.2458C66.5828 10.4278 66.693 10.4373 66.8649 10.4373C66.9856 10.4373 67.138 10.4278 67.2692 10.4278V10.6405C66.8344 10.6809 66.0076 10.8922 65.8145 10.9525L65.7647 10.9227V10.1062C65.1604 10.6004 64.6949 10.9525 63.9784 10.9525C63.4338 10.9525 62.8695 10.6004 62.8695 9.75305V7.16812C62.8695 6.90504 62.8288 6.65216 62.2651 6.60284V6.41108C62.6291 6.39947 63.4338 6.34058 63.566 6.34058C63.6781 6.34058 63.6781 6.41108 63.6781 6.63238V9.23648C63.6781 9.53888 63.6781 10.4072 64.5555 10.4072C64.8974 10.4072 65.3515 10.1445 65.7749 9.7934V7.07622C65.7749 6.87488 65.2907 6.76464 64.9287 6.66255V6.48099C65.8361 6.42026 66.4019 6.34058 66.5019 6.34058C66.5828 6.34058 66.5828 6.41108 66.5828 6.52215V10.2458Z" fill="#1A1919"/>
<path fill-rule="evenodd" clip-rule="evenodd" d="M60.105 10.5384H60.2975C60.5803 10.5384 60.7822 10.5384 60.7822 10.2044V4.58484C60.7822 3.92786 60.6304 3.90728 60.2473 3.79642V3.63503C60.65 3.5038 61.0738 3.32305 61.2865 3.20037C61.3967 3.14046 61.4782 3.08911 61.5078 3.08911C61.5692 3.08911 61.5883 3.15004 61.5883 3.23154V10.2044C61.5883 10.5384 61.811 10.5384 62.0935 10.5384H62.2651V10.8015C61.9235 10.8015 61.5692 10.7819 61.2052 10.7819C60.8431 10.7819 60.48 10.7919 60.105 10.8015V10.5384Z" fill="#1A1919"/>
<path fill-rule="evenodd" clip-rule="evenodd" d="M59.7418 5.58281H59.4898C59.2983 4.40253 58.4606 3.92814 57.3322 3.92814C56.1708 3.92814 54.4855 4.70495 54.4855 7.12623C54.4855 9.16687 55.9404 10.6302 57.4926 10.6302C58.4913 10.6302 59.319 9.94449 59.5209 8.88402L59.7519 8.94394L59.5209 10.4181C59.0971 10.6812 57.9559 10.9528 57.29 10.9528C54.9299 10.9528 53.4385 9.42853 53.4385 7.15802C53.4385 5.08866 55.2829 3.60413 57.2608 3.60413C58.0785 3.60413 58.8645 3.8672 59.6411 4.13946L59.7418 5.58281Z" fill="#1A1919"/>
<path fill-rule="evenodd" clip-rule="evenodd" d="M47.7373 9.39851C47.8695 10.0641 48.2727 10.6299 49.0094 10.6299C49.6038 10.6299 49.8246 10.2658 49.8246 9.91305C49.8246 8.72278 47.6271 9.10467 47.6271 7.48055C47.6271 6.91425 48.0816 6.18921 49.1914 6.18921C49.5137 6.18921 49.947 6.27968 50.3403 6.48102L50.4118 7.51029H50.1795C50.0788 6.87491 49.7254 6.51077 49.0792 6.51077C48.6754 6.51077 48.2933 6.74409 48.2933 7.17732C48.2933 8.35944 50.633 7.99529 50.633 9.58008C50.633 10.2456 50.0985 10.9525 48.8983 10.9525C48.4936 10.9525 48.0198 10.8117 47.667 10.6104L47.5562 9.44884L47.7373 9.39851Z" fill="#1A1919"/>
<path fill-rule="evenodd" clip-rule="evenodd" d="M43.8535 10.5384H44.1269C44.4091 10.5384 44.6092 10.5384 44.6092 10.2044V7.36949C44.6092 7.05648 44.2372 6.99575 44.0854 6.91425V6.76467C44.8219 6.45086 45.226 6.18921 45.3176 6.18921C45.3771 6.18921 45.4072 6.21794 45.4072 6.32003V7.22807H45.4288C45.6802 6.83457 46.1041 6.18921 46.7192 6.18921C46.9715 6.18921 47.2938 6.35936 47.2938 6.72351C47.2938 6.99575 47.1031 7.23906 46.8202 7.23906C46.5064 7.23906 46.5064 6.99575 46.1539 6.99575C45.9824 6.99575 45.4178 7.22807 45.4178 7.83431V10.2044C45.4178 10.5384 45.6189 10.5384 45.9014 10.5384H46.4661V10.8015C45.9116 10.792 45.4886 10.782 45.0546 10.782C44.641 10.782 44.2176 10.792 43.8535 10.8015V10.5384Z" fill="#1A1919"/>
<path fill-rule="evenodd" clip-rule="evenodd" d="M42.4729 7.69186C42.7243 7.69186 42.7536 7.56103 42.7536 7.4404C42.7536 6.92464 42.4413 6.51077 41.8761 6.51077C41.2616 6.51077 40.8378 6.96499 40.7165 7.69186H42.4729ZM40.687 8.01587C40.6656 8.10696 40.6656 8.25735 40.687 8.60091C40.7459 9.56031 41.3623 10.3473 42.1689 10.3473C42.724 10.3473 43.1588 10.0445 43.531 9.67055L43.6723 9.81197C43.2082 10.4278 42.6333 10.9525 41.8069 10.9525C40.2019 10.9525 39.8794 9.39851 39.8794 8.75253C39.8794 6.77385 41.211 6.18921 41.916 6.18921C42.7336 6.18921 43.6123 6.70293 43.6214 7.77256C43.6214 7.83431 43.6214 7.89421 43.6123 7.95515L43.5205 8.01587H40.687Z" fill="#1A1919"/>
<path fill-rule="evenodd" clip-rule="evenodd" d="M35.5209 7.53047C35.5209 7.15756 35.4097 7.05648 34.9361 6.86575V6.67277C35.369 6.53176 35.7828 6.3995 36.267 6.18921C36.2977 6.18921 36.327 6.20877 36.327 6.28845V6.94625C36.9032 6.53176 37.3978 6.18921 38.0737 6.18921C38.9313 6.18921 39.2337 6.81399 39.2337 7.60139V10.2044C39.2337 10.5384 39.4564 10.5384 39.7374 10.5384H39.9194V10.8015C39.5655 10.8015 39.2131 10.782 38.851 10.782C38.4869 10.782 38.124 10.792 37.7609 10.8015V10.5384H37.9424C38.225 10.5384 38.4256 10.5384 38.4256 10.2044V7.59181C38.4256 7.01532 38.0737 6.73349 37.4984 6.73349C37.1752 6.73349 36.6614 6.99575 36.327 7.21848V10.2044C36.327 10.5384 36.5506 10.5384 36.8332 10.5384H37.0146V10.8015C36.6614 10.8015 36.3073 10.782 35.9432 10.782C35.5818 10.782 35.2177 10.792 34.8545 10.8015V10.5384H35.0375C35.3196 10.5384 35.5209 10.5384 35.5209 10.2044V7.53047Z" fill="#1A1919"/>
<path fill-rule="evenodd" clip-rule="evenodd" d="M33.4837 4.63419C33.2203 4.63419 32.9885 4.39212 32.9885 4.13005C32.9885 3.87696 33.2303 3.64404 33.4837 3.64404C33.7452 3.64404 33.9779 3.85638 33.9779 4.13005C33.9779 4.40209 33.7551 4.63419 33.4837 4.63419ZM32.4033 10.5385H32.5944C32.8776 10.5385 33.0787 10.5385 33.0787 10.2045V7.47058C33.0787 7.02595 32.9284 6.96501 32.5538 6.7647V6.60269C33.0289 6.46046 33.593 6.27074 33.6336 6.23854C33.7052 6.19922 33.7644 6.18923 33.8159 6.18923C33.8657 6.18923 33.8861 6.24915 33.8861 6.32963V10.2045C33.8861 10.5385 34.1083 10.5385 34.3901 10.5385H34.5615V10.8016C34.2185 10.8016 33.8657 10.782 33.5025 10.782C33.1394 10.782 32.7764 10.792 32.4033 10.8016V10.5385Z" fill="#1A1919"/>
<path fill-rule="evenodd" clip-rule="evenodd" d="M26.9958 9.60987C26.9958 10.3875 27.5513 10.4778 28.0452 10.4778C30.2249 10.4778 30.9401 8.83307 30.9401 7.3292C30.9401 5.4422 29.7297 4.07933 27.7827 4.07933C27.3691 4.07933 27.1783 4.10848 26.9958 4.11948V9.60987ZM26.007 4.8757C26.007 3.96807 25.5331 4.02798 25.0796 4.01739V3.75635C25.4724 3.7755 25.8756 3.7755 26.2698 3.7755C26.6932 3.7755 27.2684 3.75635 28.015 3.75635C30.6273 3.75635 32.0497 5.50109 32.0497 7.28905C32.0497 8.28858 31.465 10.8016 27.894 10.8016C27.3805 10.8016 26.9049 10.782 26.4317 10.782C25.9771 10.782 25.5331 10.792 25.0796 10.8016V10.5385C25.6837 10.4776 25.9771 10.458 26.007 9.77188V4.8757Z" fill="#1A1919"/>
<path fill-rule="evenodd" clip-rule="evenodd" d="M16.003 10.3258C15.9986 7.95317 14.5163 5.93005 12.4282 5.1288V15.523C14.5163 14.7207 15.9986 12.6994 16.003 10.3258ZM8.44353 15.5209V5.12961C6.35726 5.93331 4.87733 7.95418 4.87205 10.3258C4.87733 12.6973 6.35726 14.7182 8.44353 15.5209ZM10.4369 1.53986C5.58754 1.54189 1.65926 5.47379 1.65829 10.3258C1.65926 15.1773 5.58754 19.1086 10.4369 19.1097C15.2866 19.1086 19.2165 15.1773 19.2179 10.3258C19.2165 5.47379 15.2866 1.54189 10.4369 1.53986ZM10.4154 19.9386C5.10869 19.9641 0.741211 15.6622 0.741211 10.426C0.741211 4.70372 5.10869 0.745523 10.4154 0.746338H12.902C18.1456 0.745523 22.9322 4.70167 22.9322 10.426C22.9322 15.6603 18.1456 19.9386 12.902 19.9386H10.4154Z" fill="#184977"/>
</svg>
