<svg width="57" height="11" viewBox="0 0 57 11" fill="none" xmlns="http://www.w3.org/2000/svg">
<path fill-rule="evenodd" clip-rule="evenodd" d="M55.6091 1.60479C55.6091 1.43727 55.508 1.34424 55.3211 1.34424H55.0752V2.19065H55.2562V1.86144L55.4695 2.19065H55.6969L55.4414 1.84097C55.5492 1.80919 55.6091 1.72253 55.6091 1.60479ZM55.2902 1.71917H55.2563V1.50099H55.2924C55.382 1.50099 55.4277 1.53612 55.4277 1.60814C55.4277 1.68157 55.3796 1.71917 55.2902 1.71917Z" fill="#231F20"/>
<path fill-rule="evenodd" clip-rule="evenodd" d="M55.3571 1.0271C54.9873 1.0271 54.6919 1.3556 54.6919 1.76583C54.6919 2.17447 54.9888 2.50369 55.3571 2.50369C55.7197 2.50369 56.0157 2.17112 56.0157 1.76583C56.0157 1.36055 55.7197 1.0271 55.3571 1.0271ZM55.3565 2.37059C55.0611 2.37059 54.8226 2.10246 54.8226 1.76743C54.8226 1.42921 55.0598 1.16126 55.3565 1.16126C55.6452 1.16126 55.8815 1.43416 55.8815 1.76743C55.8815 2.09929 55.6452 2.37059 55.3565 2.37059Z" fill="#231F20"/>
<path fill-rule="evenodd" clip-rule="evenodd" d="M54.4155 3.72102C54.4155 1.92334 53.2994 0.889648 51.3496 0.889648H48.8408V10.481H50.5315V6.62671H50.753L53.0904 10.481H55.1701L52.4392 6.44031C53.715 6.15276 54.4155 5.18931 54.4155 3.72102ZM51.0231 5.3037H50.5315V2.39801H51.0513C52.1047 2.39801 52.6777 2.88909 52.6777 3.82146C52.6777 4.78491 52.1047 5.3037 51.0231 5.3037Z" fill="#231F20"/>
<path fill-rule="evenodd" clip-rule="evenodd" d="M42.9307 10.481H47.7253V8.85668H44.6199V6.26625H47.6071V4.64352H44.6199V2.51399H47.7253V0.889648H42.9307V10.481Z" fill="#231F20"/>
<path fill-rule="evenodd" clip-rule="evenodd" d="M37.9905 7.33262L35.6765 0.889648H33.8315L37.5105 10.7271H38.4194L42.1625 0.889648H40.3307L37.9905 7.33262Z" fill="#231F20"/>
<g filter="url(#filter0_i_302_636)">
<path fill-rule="evenodd" clip-rule="evenodd" d="M24.9375 5.63853C24.9375 8.53362 26.917 10.6965 29.5579 10.6965C32.1338 10.6965 34.1671 8.50502 34.1671 5.69483C34.1671 2.90353 32.1471 0.710449 29.5579 0.710449C27.0062 0.710449 24.9375 2.91589 24.9375 5.63853Z" fill="#F48027"/>
</g>
<path fill-rule="evenodd" clip-rule="evenodd" d="M17.6021 5.69028C17.6021 8.51178 19.6043 10.6967 22.1766 10.6967C22.9054 10.6967 23.5285 10.5391 24.2962 10.1363V7.93579C23.6184 8.68423 23.0212 8.98415 22.254 8.98415C20.5522 8.98415 19.343 7.61788 19.343 5.67563C19.343 3.83701 20.59 2.38336 22.1766 2.38336C22.9813 2.38336 23.5926 2.70127 24.2962 3.4619V1.26141C23.5557 0.844647 22.9429 0.67395 22.2165 0.67395C19.6553 0.67395 17.6021 2.90392 17.6021 5.69028Z" fill="#231F20"/>
<path fill-rule="evenodd" clip-rule="evenodd" d="M14.5757 4.56817C13.5605 4.15299 13.2631 3.8785 13.2631 3.36131C13.2631 2.75814 13.793 2.29813 14.5233 2.29813C15.0297 2.29813 15.4453 2.52866 15.8883 3.07287L16.7706 1.79558C16.0427 1.08879 15.1729 0.730103 14.2235 0.730103C12.6916 0.730103 11.5213 1.90925 11.5213 3.4764C11.5213 4.801 12.0669 5.476 13.652 6.10848C14.3151 6.36673 14.6526 6.539 14.8215 6.65516C15.1596 6.90105 15.3294 7.2442 15.3294 7.64632C15.3294 8.42494 14.7698 8.99863 14.0152 8.99863C13.2092 8.99863 12.56 8.55486 12.1702 7.71974L11.0806 8.88672C11.8587 10.1508 12.7942 10.7121 14.0818 10.7121C15.836 10.7121 17.0696 9.41611 17.0696 7.56211C17.0696 6.03823 16.4998 5.34679 14.5757 4.56817Z" fill="#231F20"/>
<path fill-rule="evenodd" clip-rule="evenodd" d="M8.75342 0.889648H10.4426V10.481H8.75342V0.889648Z" fill="#231F20"/>
<path fill-rule="evenodd" clip-rule="evenodd" d="M3.32202 0.888184H0.838379V10.4796H3.31022C4.6207 10.4796 5.56933 10.1348 6.40153 9.374C7.38791 8.46528 7.97331 7.0992 7.97331 5.68881C7.97331 2.85744 6.06178 0.888184 3.32202 0.888184ZM5.29844 8.09195C4.76391 8.62556 4.07654 8.85521 2.98387 8.85521H2.52906V2.5127H2.98387C4.07654 2.5127 4.73732 2.72841 5.29844 3.28814C5.88316 3.86413 6.23091 4.75484 6.23091 5.67417C6.23091 6.59665 5.88316 7.51914 5.29844 8.09195Z" fill="#231F20"/>
<defs>
<filter id="filter0_i_302_636" x="24.9375" y="0.710449" width="9.22949" height="9.98608" filterUnits="userSpaceOnUse" color-interpolation-filters="sRGB">
<feFlood flood-opacity="0" result="BackgroundImageFix"/>
<feBlend mode="normal" in="SourceGraphic" in2="BackgroundImageFix" result="shape"/>
<feColorMatrix in="SourceAlpha" type="matrix" values="0 0 0 0 0 0 0 0 0 0 0 0 0 0 0 0 0 0 127 0" result="hardAlpha"/>
<feOffset/>
<feGaussianBlur stdDeviation="0.5"/>
<feComposite in2="hardAlpha" operator="arithmetic" k2="-1" k3="1"/>
<feColorMatrix type="matrix" values="0 0 0 0 0 0 0 0 0 0 0 0 0 0 0 0 0 0 0.5 0"/>
<feBlend mode="normal" in2="shape" result="effect1_innerShadow_302_636"/>
</filter>
</defs>
</svg>
