<svg width="50" height="50" fill="none" xmlns="http://www.w3.org/2000/svg"><path d="M0 0h50v50H0V0Z" fill="#874DCC"/><path d="M30.3 23.2H11c-.5 0-.9.4-.9.9v12.3c0 1.4 1.2 2.6 2.6 2.6h16c1.4 0 2.6-1.2 2.6-2.6V24c0-.5-.4-1-.9-1Zm-4.5 5.3a5.3 5.3 0 0 1-10.5 0v-1a.9.9 0 1 1 1.7 0v1a3.5 3.5 0 0 0 7 0v-1a.9.9 0 1 1 1.8 0v1Z" fill="#fff"/><path d="M39.1 16.1h-4.5v-1.8a5.3 5.3 0 0 0-10.5 0V16h-4.5c-.5 0-1 .4-1 1v4.3h11.7c1.5 0 2.7 1.2 2.7 2.7v12.3c0 1-.4 1.9-1 2.6h5.4c1.4 0 2.6-1.2 2.6-2.6V17c0-.5-.4-.9-.9-.9Zm-6.2 0h-7v-1.8a3.5 3.5 0 0 1 7 0V16Z" fill="#fff"/></svg>