<svg width="25" height="19" viewBox="0 0 25 19" fill="none" xmlns="http://www.w3.org/2000/svg">
<g clip-path="url(#clip0_302_648)">
<path fill-rule="evenodd" clip-rule="evenodd" d="M18.8766 9.83335H18.892H18.9219H18.9517H18.9816H19.0116H19.0413H19.0712H19.1011H19.1311H19.161H19.1908H19.2207H19.2504H19.2804H19.3103H19.3402H19.37H19.4H19.4299H19.4596H19.4895H19.5195H19.5494H19.5792H19.6091H19.6388H19.6688H19.6987H19.7286H19.7585H19.7885H19.8183H19.8481H19.8779H19.9079H19.9378H19.9677H19.9975H20.0273H20.0573H20.0871H20.117H20.1469H20.1769H20.2066H20.2365H20.2663H20.2963H20.3262H20.3561H20.386H20.4157H20.4457H20.4756H20.5054H20.5353H20.5653H20.5952H20.6249H20.6548H20.6798L20.6848 9.83348C20.694 9.83372 20.704 9.83409 20.7146 9.83471C20.7242 9.8352 20.7342 9.83582 20.7445 9.83656C20.7542 9.8373 20.7642 9.83804 20.7744 9.83891C20.7844 9.8399 20.7944 9.84089 20.8041 9.84188C20.8145 9.84299 20.8246 9.84422 20.8341 9.84546C20.8449 9.84682 20.8549 9.8483 20.864 9.84978C20.8706 9.85089 20.8766 9.852 20.882 9.85311L20.8938 9.85571C20.9038 9.85794 20.9137 9.86041 20.9237 9.86312C20.9337 9.86584 20.9437 9.86868 20.9537 9.87177C20.9637 9.87486 20.9736 9.87806 20.9835 9.88165C20.9936 9.88511 21.0034 9.88882 21.0133 9.89277C21.0234 9.89672 21.0333 9.90092 21.0432 9.90536C21.0533 9.90981 21.0632 9.91451 21.0732 9.91932C21.0832 9.92427 21.0932 9.92945 21.1031 9.93489C21.1131 9.94045 21.1231 9.94614 21.1329 9.95206C21.1429 9.95823 21.1529 9.96454 21.1628 9.97109C21.1728 9.97775 21.1828 9.98467 21.1925 9.99184C21.2028 9.99937 21.2128 10.007 21.2225 10.0149C21.2327 10.0231 21.2427 10.0316 21.2524 10.0404C21.2627 10.0494 21.2725 10.0588 21.2823 10.0684C21.2925 10.0786 21.3024 10.0889 21.3121 10.0997C21.3224 10.111 21.3323 10.1228 21.3421 10.1348C21.3524 10.1476 21.3624 10.1609 21.372 10.1745C21.3824 10.1895 21.3924 10.2048 21.4017 10.2205C21.4124 10.2382 21.4224 10.2564 21.4316 10.2751C21.4427 10.2973 21.4527 10.3202 21.4616 10.3436C21.4735 10.3753 21.4834 10.408 21.4915 10.4417C21.505 10.5003 21.5125 10.562 21.5125 10.6264C21.5125 10.6911 21.5052 10.7531 21.4915 10.8119C21.4834 10.8458 21.4735 10.8786 21.4616 10.9103C21.4527 10.9339 21.4427 10.9567 21.4316 10.9789C21.4224 10.9977 21.4124 11.0159 21.4017 11.0337C21.3924 11.0494 21.3824 11.0647 21.372 11.0796C21.3624 11.0932 21.3524 11.1066 21.3421 11.1194C21.3323 11.1314 21.3224 11.1431 21.3121 11.1545C21.3024 11.1651 21.2925 11.1756 21.2823 11.1857C21.2725 11.1954 21.2625 11.2046 21.2524 11.2138C21.2427 11.2224 21.2327 11.2308 21.2225 11.2391C21.2128 11.247 21.2028 11.2547 21.1925 11.2621C21.1828 11.2691 21.1728 11.276 21.1628 11.2828C21.1529 11.2892 21.1429 11.2956 21.1329 11.3016C21.1231 11.3075 21.1131 11.3133 21.1031 11.3188C21.0932 11.3241 21.0833 11.3293 21.0732 11.3342C21.0632 11.339 21.0533 11.3437 21.0432 11.3482C21.0333 11.3525 21.0234 11.3566 21.0133 11.3606C21.0034 11.3645 20.9936 11.3682 20.9835 11.3716C20.9736 11.3751 20.9637 11.3784 20.9537 11.3814C20.9437 11.3845 20.9337 11.3873 20.9237 11.3899C20.9137 11.3925 20.9038 11.395 20.8938 11.3972L20.882 11.3998C20.8766 11.4009 20.8706 11.4022 20.864 11.4033C20.8549 11.4049 20.8449 11.4063 20.8341 11.4077C20.8246 11.4089 20.8145 11.4102 20.8041 11.4113C20.7944 11.4124 20.7844 11.4133 20.7744 11.4141C20.7642 11.4151 20.7542 11.4159 20.7445 11.4166C20.7342 11.4172 20.7242 11.4178 20.7146 11.4183C20.704 11.419 20.694 11.4193 20.6848 11.4196L20.6687 11.4197H20.6548H20.6249H20.5952H20.5653H20.5353H20.5054H20.4756H20.4457H20.4157H20.386H20.3561H20.3262H20.2963H20.2663H20.2365H20.2066H20.1769H20.1469H20.117H20.0871H20.0573H20.0273H19.9975H19.9677H19.9378H19.9079H19.8779H19.8481H19.8183H19.7885H19.7585H19.7286H19.6987H19.6688H19.6388H19.6091H19.5792H19.5494H19.5195H19.4895H19.4596H19.4299H19.4H19.37H19.3402H19.3103H19.2804H19.2504H19.2207H19.1908H19.161H19.1311H19.1011H19.0712H19.0413H19.0116H18.9816H18.9517H18.9219H18.892H18.8766V9.83335ZM21.2824 8.03799C21.2944 8.09123 21.301 8.14756 21.301 8.20698C21.301 8.26627 21.2944 8.3226 21.2824 8.37584C21.2748 8.41006 21.2646 8.44292 21.2525 8.47442C21.2437 8.4974 21.2337 8.51963 21.2227 8.54112C21.2133 8.55916 21.2033 8.57658 21.1927 8.5935C21.1833 8.60845 21.1733 8.62303 21.1628 8.6371C21.1533 8.64995 21.1433 8.66243 21.1331 8.67453C21.1233 8.68578 21.1135 8.69664 21.1032 8.70727C21.0935 8.71728 21.0836 8.7269 21.0733 8.73629C21.0635 8.7452 21.0535 8.75383 21.0433 8.76212C21.0336 8.77015 21.0236 8.7778 21.0135 8.78534C21.0037 8.79251 20.9937 8.79955 20.9836 8.80621C20.9738 8.81276 20.9638 8.81894 20.9537 8.82498C20.9438 8.83092 20.9338 8.8366 20.9238 8.84192C20.914 8.84723 20.904 8.85229 20.894 8.85723C20.8841 8.86192 20.8741 8.86649 20.8641 8.87082C20.8542 8.87514 20.8444 8.87922 20.8342 8.88305C20.8244 8.88676 20.8144 8.89033 20.8042 8.8938C20.7944 8.89713 20.7845 8.90022 20.7745 8.90319C20.7645 8.90615 20.7546 8.90886 20.7446 8.91133C20.7348 8.91393 20.7248 8.91616 20.7148 8.91825C20.7049 8.92048 20.6949 8.92233 20.6849 8.92406L20.6777 8.92529C20.6717 8.92628 20.6641 8.92739 20.6549 8.92851C20.6461 8.92962 20.636 8.93072 20.625 8.93171C20.6157 8.9327 20.6056 8.93357 20.5953 8.93444C20.5854 8.9353 20.5754 8.93592 20.5654 8.93654C20.5553 8.93716 20.5452 8.93777 20.5354 8.93815C20.525 8.93851 20.515 8.93876 20.5056 8.93888H20.5008H20.4757H20.4458H20.4158H20.3861H20.3562H20.3263H20.2965H20.2665H20.2366H20.2069H20.177H20.147H20.1171H20.0873H20.0574H20.0275H19.9977H19.9678H19.9379H19.9081H19.8782H19.8483H19.8185H19.7886H19.7586H19.7287H19.6988H19.6691H19.6391H19.6092H19.5794H19.5495H19.5196H19.4898H19.4599H19.43H19.4002H19.3702H19.3403H19.3106H19.2807H19.2507H19.2208H19.191H19.1611H19.1313H19.1013H19.0715H19.0416H19.0117H18.9817H18.9519H18.9221H18.8923H18.8766V7.47496H18.8923H18.9221H18.9519H18.9817H19.0117H19.0416H19.0715H19.1013H19.1313H19.1611H19.191H19.2208H19.2507H19.2807H19.3106H19.3403H19.3702H19.4002H19.43H19.4599H19.4898H19.5196H19.5495H19.5794H19.6092H19.6391H19.6691H19.6988H19.7287H19.7586H19.7886H19.8185H19.8483H19.8782H19.9081H19.9379H19.9678H19.9977H20.0275H20.0574H20.0873H20.1171H20.147H20.177H20.2069H20.2366H20.2665H20.2965H20.3263H20.3562H20.3861H20.4158H20.4458H20.4757H20.5056H20.5182L20.5354 7.47556C20.5452 7.47594 20.5553 7.47655 20.5654 7.47717C20.5754 7.47779 20.5854 7.47853 20.5953 7.47928C20.6056 7.48001 20.6157 7.481 20.625 7.48187C20.636 7.48286 20.6461 7.48396 20.6549 7.48496C20.6641 7.48595 20.6717 7.48694 20.6777 7.48767L20.6849 7.48892C20.6949 7.49077 20.7049 7.49261 20.7148 7.49484C20.7248 7.49695 20.7348 7.49929 20.7446 7.50176C20.7546 7.50436 20.7645 7.50707 20.7745 7.51003C20.7845 7.51299 20.7944 7.51621 20.8042 7.51954C20.8144 7.523 20.8244 7.52659 20.8342 7.53041C20.8444 7.53425 20.8542 7.53832 20.8641 7.54252C20.8741 7.54697 20.8841 7.55154 20.894 7.55624C20.904 7.56118 20.914 7.56623 20.9238 7.57155C20.9338 7.57699 20.9438 7.58267 20.9537 7.58848C20.9638 7.59453 20.9738 7.60083 20.9836 7.60737C20.9937 7.61405 21.0037 7.62108 21.0135 7.62825C21.0236 7.63579 21.0336 7.64345 21.0433 7.65148C21.0535 7.65988 21.0635 7.66852 21.0733 7.67741C21.0836 7.68668 21.0935 7.69632 21.1032 7.70633C21.1135 7.71694 21.1233 7.72781 21.1331 7.73906C21.1433 7.75117 21.1533 7.76364 21.1628 7.77649C21.1733 7.79069 21.1833 7.80514 21.1927 7.82009C21.2033 7.83701 21.2133 7.85455 21.2227 7.87259C21.2337 7.89396 21.2437 7.91631 21.2525 7.93929C21.2646 7.97079 21.2748 8.00365 21.2824 8.03799ZM24.9878 0.447144H24.9999V15.4817C24.9999 15.5715 24.9957 15.6603 24.9878 15.7481C24.9807 15.8255 24.9707 15.902 24.9578 15.9773C24.9491 16.0281 24.9392 16.0783 24.9279 16.1282C24.9188 16.1687 24.9088 16.209 24.8981 16.2489C24.8887 16.2834 24.8788 16.3176 24.8682 16.3514C24.8587 16.3822 24.8487 16.4127 24.8382 16.443C24.8287 16.4706 24.8187 16.4977 24.8084 16.5248C24.7988 16.5501 24.7888 16.5752 24.7786 16.6C24.7688 16.6235 24.759 16.6466 24.7487 16.6698C24.739 16.6916 24.729 16.7135 24.7188 16.7351C24.709 16.7556 24.699 16.7761 24.6888 16.7965C24.6791 16.8159 24.6691 16.8354 24.659 16.8545C24.6492 16.8731 24.6392 16.8915 24.6291 16.9096C24.6194 16.9272 24.6094 16.9444 24.5992 16.9618C24.5895 16.9786 24.5794 16.9952 24.5694 17.0118C24.5595 17.0279 24.5495 17.044 24.5395 17.0598C24.5296 17.0753 24.5198 17.0909 24.5096 17.1062C24.4998 17.121 24.4898 17.1357 24.4798 17.1503C24.4699 17.1644 24.4599 17.1786 24.4498 17.1928C24.4399 17.2066 24.4299 17.2203 24.4199 17.234C24.41 17.2474 24.4002 17.2606 24.39 17.2738C24.3802 17.2867 24.3702 17.2994 24.3602 17.312C24.3503 17.3244 24.3404 17.337 24.3303 17.3493C24.3204 17.3614 24.3104 17.3733 24.3003 17.3852C24.2906 17.397 24.2806 17.4085 24.2706 17.4201C24.2606 17.4315 24.2507 17.4429 24.2407 17.4541C24.2308 17.4652 24.2208 17.476 24.2108 17.4869C24.2009 17.4976 24.1908 17.5082 24.1808 17.5187C24.171 17.5292 24.1609 17.5396 24.1509 17.55C24.1411 17.56 24.1311 17.57 24.1211 17.58C24.1112 17.5899 24.1013 17.5998 24.0912 17.6097C24.0813 17.6192 24.0713 17.6286 24.0613 17.6379C24.0513 17.6473 24.0415 17.6568 24.0313 17.6659C24.0215 17.675 24.0116 17.6839 24.0016 17.6929C23.9916 17.7019 23.9817 17.7106 23.9717 17.7194C23.9617 17.728 23.9519 17.7366 23.9419 17.7451C23.932 17.7535 23.9219 17.7618 23.9119 17.7702C23.9019 17.7784 23.892 17.7866 23.882 17.7947C23.8721 17.8026 23.8621 17.8106 23.8521 17.8184C23.8423 17.8263 23.8324 17.834 23.8223 17.8417C23.8124 17.8493 23.8024 17.8567 23.7923 17.8643C23.7824 17.8716 23.7725 17.8791 23.7625 17.8864C23.7527 17.8937 23.7425 17.9009 23.7327 17.9079C23.7227 17.915 23.7128 17.922 23.7028 17.9291C23.6929 17.936 23.6829 17.9427 23.6729 17.9494C23.6628 17.9562 23.6529 17.963 23.6429 17.9695C23.6331 17.9761 23.6231 17.9825 23.6131 17.9889C23.6032 17.9954 23.5932 18.0017 23.5832 18.0081C23.5733 18.0143 23.5633 18.0205 23.5533 18.0264C23.5435 18.0325 23.5333 18.0387 23.5233 18.0447C23.5134 18.0506 23.5036 18.0563 23.4936 18.0621L23.4637 18.0794C23.4537 18.0851 23.4438 18.0908 23.4338 18.0961C23.424 18.1017 23.414 18.107 23.4038 18.1124C23.3938 18.1177 23.384 18.1232 23.374 18.1284C23.3641 18.1336 23.3541 18.1386 23.3441 18.1437C23.3341 18.1489 23.3242 18.1541 23.3142 18.1592C23.3044 18.164 23.2944 18.1687 23.2844 18.1736C23.2744 18.1784 23.2645 18.1832 23.2544 18.1879C23.2445 18.1926 23.2345 18.1972 23.2246 18.2017L23.1948 18.2154L23.1649 18.2285C23.155 18.2328 23.1449 18.2369 23.1349 18.2411C23.1249 18.2454 23.115 18.2497 23.105 18.2538C23.0952 18.2578 23.0852 18.2616 23.0752 18.2656C23.0653 18.2696 23.0553 18.2737 23.0453 18.2775C23.0354 18.2813 23.0254 18.2849 23.0154 18.2887C23.0054 18.2924 22.9956 18.296 22.9856 18.2998L22.9557 18.3103C22.9457 18.3139 22.9357 18.3172 22.9258 18.3205C22.9158 18.3241 22.9059 18.3275 22.8959 18.3308C22.8859 18.3341 22.876 18.3371 22.866 18.3402L22.8361 18.3497C22.8262 18.3527 22.8162 18.3556 22.8062 18.3587L22.7763 18.3673C22.7665 18.3701 22.7563 18.373 22.7463 18.3756C22.7365 18.3784 22.7265 18.381 22.7166 18.3836C22.7066 18.3862 22.6967 18.3889 22.6867 18.3913L22.6569 18.3988L22.6269 18.4058L22.597 18.4128C22.5871 18.4149 22.5771 18.4169 22.5671 18.4191C22.5573 18.4211 22.5473 18.4234 22.5373 18.4253L22.5074 18.4311L22.4775 18.4367C22.4675 18.4386 22.4577 18.4405 22.4477 18.4421C22.4377 18.4439 22.4277 18.4453 22.4178 18.447L22.3879 18.4518L22.3579 18.4562L22.3281 18.4603C22.3181 18.4615 22.3082 18.463 22.2982 18.4643C22.2883 18.4654 22.2783 18.4665 22.2685 18.4676C22.2585 18.4687 22.2485 18.4699 22.2385 18.4709C22.2285 18.472 22.2186 18.473 22.2086 18.4741C22.1986 18.4748 22.1886 18.4757 22.1787 18.4766C22.1687 18.4774 22.1588 18.4784 22.1488 18.4791C22.1388 18.4798 22.129 18.4804 22.119 18.4811L22.089 18.483C22.079 18.4836 22.0691 18.4843 22.0591 18.4847C22.0492 18.4852 22.0392 18.4855 22.0292 18.4858L21.9995 18.487L21.9695 18.4877C21.9595 18.4879 21.9495 18.488 21.9396 18.4881L21.9098 18.4885H21.9036H21.8799H21.85H21.82H21.7902H21.7603H21.7306H21.7006H21.6707H21.6408H21.611H21.581H21.5511H21.5212H21.4915H21.4616H21.4316H21.4017H21.3719H21.342H21.312H21.2821H21.2523H21.2225H21.1925H21.1627H21.1328H21.1029H21.0731H21.0431H21.0132H20.9833H20.9536H20.9236H20.8937H20.8638H20.834H20.8041H20.7741H20.7442H20.7145H20.6846H20.6546H20.6248H20.5949H20.565H20.535H20.5052H20.4753H20.4456H20.4157H20.3857H20.3558H20.326H20.2961H20.2661H20.2362H20.2063H20.1766H20.1466H20.1167H20.0869H20.057H20.0271H19.9971H19.9673H19.9375H19.9077H19.8777H19.8478H19.8179H19.7881H19.7581H19.7282H19.6985H19.6686H19.6387H19.6087H19.5788H19.549H19.5191H19.4891H19.4594H19.4295H19.3996H19.3696H19.3398H19.3099H19.28H19.2502H19.2203H19.1904H19.1606H19.1307H19.1007H19.0708H19.041H19.0111H18.9812H18.9513H18.9215H18.8916H18.8617H18.8317H18.8019H18.772H18.7421H18.7121H18.6824H18.6525H18.6227H18.5928H18.5628H18.5329H18.5031H18.4732H18.4433H18.4135H18.3836H18.3537H18.3237H18.2938H18.264H18.2341H18.2042H18.1744H18.1445H18.1146H18.0848H18.0548H18.0249H17.995H17.9652H17.9352H17.9054H17.8756H17.8457H17.8158H17.7858H17.756H17.7261H17.6962H17.6663H17.6365H17.6066H17.5767H17.5467H17.5169H17.487H17.4571H17.4273H17.3628V12.3584H17.4273H17.4571H17.487H17.5169H17.5467H17.5767H17.6066H17.6365H17.6663H17.6962H17.7261H17.756H17.7858H17.8158H17.8457H17.8756H17.9054H17.9352H17.9652H17.995H18.0249H18.0548H18.0848H18.1146H18.1445H18.1744H18.2042H18.2341H18.264H18.2938H18.3237H18.3537H18.3836H18.4135H18.4433H18.4732H18.5031H18.5329H18.5628H18.5928H18.6227H18.6525H18.6824H18.7121H18.7421H18.772H18.8019H18.8317H18.8617H18.8916H18.9215H18.9513H18.9812H19.0111H19.041H19.0708H19.1007H19.1307H19.1606H19.1904H19.2203H19.2502H19.28H19.3099H19.3398H19.3696H19.3996H19.4295H19.4594H19.4891H19.5191H19.549H19.5788H19.6087H19.6387H19.6686H19.6985H19.7282H19.7581H19.7881H19.8179H19.8478H19.8777H19.9077H19.9375H19.9673H19.9971H20.0271H20.057H20.0869H20.1167H20.1466H20.1766H20.2063H20.2362H20.2661H20.2961H20.326H20.3558H20.3857H20.4157H20.4456H20.4753H20.5052H20.535H20.565H20.5949H20.6248H20.6546H20.6846H20.7145H20.7442H20.7741H20.8041H20.834H20.8638H20.8937H20.9236H20.9536H20.9833H21.0132H21.0431H21.0731H21.1029H21.1328H21.1627H21.1925H21.2225H21.2523H21.2821H21.312H21.342H21.3719H21.4017H21.4316H21.4616H21.4915H21.5212H21.5511H21.581H21.611H21.6408H21.6707H21.7006H21.7306H21.7603H21.7902H21.82H21.85H21.8799H21.9098H21.9396H21.9695H21.9995H22.0292H22.0591H22.089H22.119H22.1488H22.1646L22.1787 12.3583L22.2086 12.358L22.2385 12.3575C22.2485 12.3573 22.2585 12.357 22.2685 12.3568C22.2783 12.3564 22.2883 12.3559 22.2982 12.3555L22.3281 12.3542L22.3579 12.3525L22.3879 12.3504L22.4178 12.3481L22.4477 12.3455C22.4575 12.3446 22.4675 12.3437 22.4775 12.3427C22.4875 12.3417 22.4975 12.3405 22.5074 12.3394L22.5373 12.3358C22.5473 12.3345 22.5573 12.3334 22.5671 12.3321C22.5771 12.3307 22.5871 12.3292 22.597 12.3277C22.607 12.3263 22.617 12.3248 22.6269 12.3233L22.6569 12.3184L22.6867 12.3132C22.6967 12.3113 22.7067 12.3096 22.7166 12.3077C22.7266 12.3058 22.7365 12.3037 22.7463 12.3017L22.7763 12.2954C22.7863 12.2933 22.7963 12.2911 22.8062 12.2888C22.8162 12.2865 22.8262 12.2841 22.8361 12.2817C22.8461 12.2793 22.8561 12.2769 22.866 12.2744C22.876 12.2718 22.8859 12.2692 22.8959 12.2665C22.9059 12.2639 22.9158 12.261 22.9258 12.2582C22.9358 12.2555 22.9458 12.2525 22.9557 12.2497L22.9856 12.2405C22.9956 12.2374 23.0054 12.2342 23.0154 12.231C23.0254 12.2277 23.0354 12.2245 23.0453 12.221C23.0553 12.2177 23.0653 12.2142 23.0752 12.2106C23.0853 12.2071 23.0952 12.2034 23.105 12.1996C23.115 12.1959 23.125 12.1921 23.1349 12.1882C23.1449 12.1843 23.155 12.1804 23.1649 12.1763C23.1749 12.1722 23.1849 12.168 23.1948 12.1638C23.2048 12.1595 23.2146 12.1552 23.2246 12.1507C23.2346 12.1463 23.2445 12.1418 23.2544 12.1372C23.2644 12.1326 23.2744 12.1279 23.2844 12.1231C23.2945 12.1183 23.3044 12.1132 23.3142 12.1082C23.3242 12.1032 23.3342 12.0979 23.3441 12.0927C23.3542 12.0874 23.3641 12.0819 23.374 12.0765C23.384 12.0709 23.394 12.0654 23.4038 12.0597C23.414 12.0539 23.424 12.0481 23.4338 12.0422C23.4438 12.0361 23.4538 12.0299 23.4637 12.0236C23.4737 12.0173 23.4837 12.0109 23.4936 12.0044C23.5036 11.9978 23.5136 11.991 23.5233 11.9842C23.5335 11.9773 23.5435 11.9703 23.5533 11.9631C23.5635 11.9558 23.5734 11.9485 23.5832 11.941C23.5933 11.9333 23.6033 11.9257 23.6131 11.9179C23.6232 11.9099 23.6331 11.9017 23.6429 11.8935C23.6531 11.8851 23.6629 11.8766 23.6729 11.868C23.6831 11.8591 23.6929 11.8501 23.7028 11.8409C23.7129 11.8315 23.7228 11.822 23.7327 11.8124C23.7428 11.8025 23.7527 11.7924 23.7625 11.7823C23.7727 11.7716 23.7825 11.761 23.7923 11.7501C23.8025 11.7389 23.8125 11.7275 23.8223 11.716C23.8325 11.7041 23.8424 11.692 23.8521 11.6796C23.8623 11.6667 23.8724 11.6538 23.882 11.6406C23.8923 11.6265 23.9021 11.6123 23.9119 11.5978C23.9221 11.5826 23.9321 11.5672 23.9419 11.5515C23.9523 11.5347 23.9621 11.5177 23.9717 11.5004C23.9821 11.4816 23.9921 11.4626 24.0016 11.4433C24.0121 11.4217 24.022 11.3998 24.0313 11.3776C24.0421 11.352 24.0521 11.3262 24.0613 11.2999C24.0725 11.2675 24.0824 11.2344 24.0912 11.2008C24.104 11.1515 24.114 11.1011 24.1211 11.0494C24.1298 10.9866 24.1342 10.9221 24.1342 10.8558C24.1342 10.7913 24.1298 10.7286 24.1211 10.6678C24.1138 10.6177 24.1038 10.569 24.0912 10.5215C24.0824 10.4892 24.0725 10.4574 24.0613 10.4263C24.0521 10.4008 24.0421 10.3756 24.0313 10.3509C24.0221 10.3296 24.0121 10.3084 24.0016 10.2877C23.9921 10.269 23.9821 10.2506 23.9717 10.2326C23.9621 10.2158 23.9523 10.1994 23.9419 10.1831C23.9321 10.168 23.9221 10.1532 23.9119 10.1385C23.9021 10.1246 23.8923 10.1109 23.882 10.0973C23.8724 10.0846 23.8624 10.0721 23.8521 10.0597C23.8424 10.0478 23.8325 10.0361 23.8223 10.0244C23.8125 10.0133 23.8025 10.0023 23.7923 9.99147C23.7825 9.98108 23.7727 9.97071 23.7625 9.96059C23.7527 9.95082 23.7428 9.94107 23.7327 9.93156C23.7228 9.9223 23.7128 9.91302 23.7028 9.90401C23.6929 9.89524 23.6829 9.88659 23.6729 9.87806C23.6629 9.86967 23.6531 9.86139 23.6429 9.85324C23.6331 9.84533 23.6232 9.83754 23.6131 9.82977C23.6032 9.82223 23.5933 9.81469 23.5832 9.80741C23.5733 9.80013 23.5635 9.79308 23.5533 9.78604C23.5435 9.77913 23.5335 9.77232 23.5233 9.76566C23.5136 9.75911 23.5036 9.75256 23.4936 9.74614C23.4837 9.73983 23.4737 9.73354 23.4637 9.72748C23.4538 9.72143 23.4438 9.7155 23.4338 9.70957C23.424 9.70389 23.414 9.69821 23.4038 9.69252C23.394 9.68709 23.384 9.68165 23.374 9.67622C23.3641 9.67091 23.3542 9.66572 23.3441 9.66065C23.3342 9.65559 23.3242 9.65053 23.3142 9.64558C23.3044 9.64077 23.2945 9.63595 23.2844 9.63113C23.2744 9.62657 23.2645 9.62187 23.2544 9.6173C23.2445 9.61285 23.2346 9.60853 23.2246 9.6042C23.2148 9.59988 23.2048 9.59569 23.1948 9.59148C23.1849 9.5874 23.1749 9.58332 23.1649 9.57937C23.155 9.57542 23.1449 9.57147 23.1349 9.56764C23.125 9.56393 23.115 9.56011 23.105 9.55652C23.0952 9.55294 23.0852 9.54936 23.0752 9.54589C23.0653 9.54244 23.0553 9.5391 23.0453 9.53565C23.0354 9.53232 23.0256 9.5291 23.0154 9.52589C23.0054 9.52268 22.9956 9.51958 22.9856 9.51649C22.9756 9.51353 22.9656 9.51057 22.9557 9.5076L22.9258 9.49908C22.9158 9.49637 22.9059 9.49364 22.8959 9.49093C22.8859 9.48834 22.876 9.48574 22.866 9.48327C22.8561 9.4808 22.8461 9.47833 22.8361 9.47599C22.8262 9.47363 22.8162 9.47129 22.8062 9.46894C22.7963 9.46671 22.7863 9.4645 22.7763 9.4624C22.7665 9.46029 22.7563 9.45819 22.7463 9.45621C22.7365 9.45412 22.7266 9.45214 22.7166 9.45029L22.6867 9.44473L22.6569 9.43954C22.647 9.43781 22.637 9.4362 22.6269 9.4346L22.597 9.43003C22.5871 9.42855 22.5771 9.42719 22.5671 9.42583L22.5373 9.42187L22.5074 9.41818L22.4775 9.41496L22.4477 9.41187L22.4178 9.40916L22.3879 9.4068L22.3603 9.40471V9.36988L22.3879 9.3658L22.4178 9.36097C22.4278 9.35925 22.4378 9.35764 22.4477 9.35592L22.4775 9.35036C22.4875 9.34838 22.4975 9.34641 22.5074 9.3443L22.5373 9.33801C22.5473 9.33578 22.5573 9.33355 22.5671 9.33133C22.5771 9.32899 22.5871 9.32652 22.597 9.32404C22.607 9.32157 22.617 9.31898 22.6269 9.31639C22.637 9.31366 22.647 9.31107 22.6569 9.30823C22.6669 9.30552 22.6769 9.30267 22.6867 9.2997C22.6967 9.29674 22.7067 9.29378 22.7166 9.29069C22.7266 9.28761 22.7365 9.28439 22.7463 9.28106C22.7565 9.27784 22.7665 9.27438 22.7763 9.27093C22.7865 9.26747 22.7963 9.26401 22.8062 9.26043C22.8162 9.25671 22.8262 9.25302 22.8361 9.2493C22.8461 9.24548 22.8561 9.24153 22.866 9.23757C22.876 9.2335 22.8859 9.22942 22.8959 9.22522C22.9059 9.22102 22.916 9.2167 22.9258 9.21225C22.9358 9.20781 22.9458 9.20323 22.9557 9.19866C22.9657 9.19396 22.9757 9.18915 22.9856 9.18434C22.9956 9.1794 23.0056 9.17433 23.0154 9.16926C23.0256 9.16407 23.0356 9.15889 23.0453 9.15357C23.0554 9.14814 23.0653 9.14257 23.0752 9.13703C23.0853 9.13134 23.0952 9.12554 23.105 9.11961C23.1152 9.11367 23.125 9.10763 23.1349 9.10145C23.145 9.09515 23.155 9.08873 23.1649 9.08229C23.1749 9.07563 23.1849 9.06896 23.1948 9.06217C23.2048 9.05512 23.2148 9.04808 23.2246 9.04091C23.2346 9.03363 23.2446 9.02622 23.2544 9.01868C23.2645 9.0109 23.2745 9.00311 23.2844 8.99521C23.2945 8.98705 23.3045 8.97878 23.3142 8.97038C23.3244 8.96162 23.3344 8.95284 23.3441 8.94407C23.3542 8.9348 23.3642 8.92554 23.374 8.91616C23.3841 8.90652 23.3941 8.89664 23.4038 8.88676C23.4141 8.87637 23.4241 8.86587 23.4338 8.85526C23.444 8.84414 23.454 8.8329 23.4637 8.82152C23.4738 8.80967 23.4838 8.79769 23.4936 8.78559C23.5037 8.77273 23.5137 8.75976 23.5233 8.74655C23.5337 8.73272 23.5436 8.71863 23.5533 8.70431C23.5637 8.68911 23.5736 8.67379 23.5832 8.65823C23.5936 8.6413 23.6036 8.62425 23.6131 8.60709C23.6236 8.58807 23.6335 8.56891 23.6429 8.54952C23.6536 8.52766 23.6635 8.50543 23.6729 8.48306C23.6836 8.457 23.6937 8.43057 23.7028 8.40388C23.7141 8.37016 23.7241 8.33595 23.7327 8.30136C23.7463 8.24515 23.7563 8.18771 23.7625 8.12941C23.7673 8.08332 23.7699 8.03676 23.7699 7.98957C23.7699 7.93979 23.7673 7.89125 23.7625 7.84392C23.7563 7.78353 23.7462 7.7251 23.7327 7.66877C23.7241 7.63356 23.7141 7.5991 23.7028 7.5655C23.6937 7.5387 23.6836 7.51226 23.6729 7.48645C23.6635 7.4642 23.6536 7.44234 23.6429 7.42085C23.6335 7.40171 23.6234 7.38292 23.6131 7.36439C23.6036 7.34747 23.5936 7.3308 23.5832 7.31424C23.5736 7.29904 23.5637 7.28398 23.5533 7.26915C23.5436 7.25519 23.5336 7.24161 23.5233 7.22815C23.5137 7.21542 23.5037 7.20281 23.4936 7.19035C23.4838 7.17861 23.4738 7.16688 23.4637 7.15539C23.454 7.14439 23.444 7.13364 23.4338 7.12303C23.4241 7.11277 23.4141 7.10263 23.4038 7.09263C23.3941 7.083 23.3841 7.07349 23.374 7.06422C23.3642 7.05508 23.3542 7.04619 23.3441 7.0373C23.3344 7.02877 23.3244 7.02036 23.3142 7.01209C23.3045 7.00393 23.2945 6.99592 23.2844 6.98813C23.2745 6.98048 23.2645 6.97294 23.2544 6.9654C23.2446 6.95823 23.2346 6.95106 23.2246 6.94403C23.2148 6.9371 23.2048 6.93032 23.1948 6.92364C23.1849 6.9171 23.1749 6.91056 23.1649 6.90425C23.155 6.89795 23.1449 6.89177 23.1349 6.88573C23.125 6.87979 23.115 6.87399 23.105 6.86819C23.0952 6.8625 23.0853 6.85694 23.0752 6.85138C23.0653 6.84607 23.0554 6.84064 23.0453 6.83544C23.0354 6.83026 23.0256 6.82519 23.0154 6.82013C23.0054 6.81519 22.9956 6.81037 22.9856 6.80555C22.9756 6.80086 22.9657 6.79616 22.9557 6.79159C22.9458 6.78714 22.9358 6.7827 22.9258 6.77838C22.916 6.77405 22.9059 6.76998 22.8959 6.76578C22.8859 6.7617 22.876 6.75762 22.866 6.75367C22.8561 6.74984 22.8461 6.74602 22.8361 6.74218C22.8262 6.73848 22.8162 6.73477 22.8062 6.73119C22.7963 6.72761 22.7865 6.72415 22.7763 6.72069C22.7665 6.71722 22.7565 6.71402 22.7463 6.71069C22.7365 6.70747 22.7266 6.70438 22.7166 6.70118C22.7067 6.69821 22.6967 6.69512 22.6867 6.69216C22.6767 6.68919 22.6669 6.68634 22.6569 6.68351C22.647 6.68067 22.637 6.67807 22.6269 6.67535C22.617 6.67276 22.607 6.67017 22.597 6.6677L22.5671 6.66029C22.5573 6.65793 22.5473 6.65559 22.5373 6.65337C22.5274 6.65102 22.5174 6.64893 22.5074 6.64682L22.4775 6.64064C22.4675 6.63867 22.4577 6.63656 22.4477 6.63471C22.4378 6.63286 22.4278 6.63113 22.4178 6.62928L22.3879 6.62421C22.3781 6.6226 22.3681 6.62088 22.3579 6.6194L22.3281 6.61495L22.2982 6.61087L22.2685 6.60705L22.2385 6.60358L22.2086 6.6005L22.1787 6.59754L22.1488 6.59507L22.119 6.59284L22.089 6.59073L22.0591 6.58901L22.0473 6.58839L22.0292 6.58728L21.9995 6.58567L21.9695 6.58407L21.9396 6.58246L21.9098 6.58111L21.8799 6.57987L21.85 6.57875L21.82 6.57789L21.7902 6.57727L21.7603 6.5769L21.7438 6.57678H21.7306H21.7006H21.6707H21.6408H21.611H21.581H21.5511H21.5212H21.4915H21.4616H21.4316H21.4017H21.3719H21.342H21.312H21.2821H21.2523H21.2225H21.1925H21.1627H21.1328H21.1029H21.0731H21.0431H21.0132H20.9833H20.9536H20.9236H20.8937H20.8638H20.834H20.8041H20.7741H20.7442H20.7145H20.6846H20.6546H20.6248H20.5949H20.565H20.535H20.5052H20.4753H20.4456H20.4157H20.3857H20.3558H20.326H20.2961H20.2661H20.2362H20.2063H20.1766H20.1466H20.1167H20.0869H20.057H20.0271H19.9971H19.9673H19.9375H19.9077H19.8777H19.8478H19.8179H19.7881H19.7581H19.7282H19.6985H19.6686H19.6387H19.6087H19.5788H19.549H19.5191H19.4891H19.4594H19.4295H19.3996H19.3696H19.3398H19.3099H19.28H19.2502H19.2203H19.1904H19.1606H19.1307H19.1007H19.0708H19.041H19.0111H18.9812H18.9513H18.9215H18.8916H18.8617H18.8317H18.8019H18.772H18.7421H18.7121H18.6824H18.6525H18.6227H18.5928H18.5628H18.5329H18.5031H18.4732H18.4433H18.4135H18.3836H18.3537H18.3237H18.2938H18.264H18.2341H18.2042H18.1744H18.1445H18.1146H18.0848H18.0548H18.0249H17.995H17.9652H17.9352H17.9054H17.8756H17.8457H17.8158H17.7858H17.756H17.7261H17.6962H17.6663H17.6365H17.6066H17.5767H17.5467H17.5169H17.487H17.4571H17.4273H17.3628V3.45424C17.3628 3.24424 17.3852 3.03918 17.4273 2.84129C17.4363 2.79892 17.4463 2.7569 17.4571 2.71522C17.4665 2.67955 17.4765 2.64413 17.487 2.60899C17.4965 2.57759 17.5065 2.54643 17.5169 2.51546C17.5265 2.48718 17.5363 2.45903 17.5467 2.43113C17.5565 2.40525 17.5663 2.37951 17.5767 2.35396C17.5863 2.33011 17.5963 2.30636 17.6066 2.28281C17.6163 2.26058 17.6262 2.23847 17.6365 2.2165C17.6461 2.19563 17.6561 2.17493 17.6663 2.15434C17.6761 2.13469 17.6861 2.11518 17.6962 2.09576C17.706 2.07709 17.716 2.05858 17.7261 2.04012C17.7358 2.02235 17.7458 2.00469 17.756 1.98714C17.7658 1.97011 17.7757 1.95323 17.7858 1.93639C17.7957 1.92009 17.8057 1.90386 17.8158 1.88777C17.8257 1.87215 17.8356 1.85666 17.8457 1.84124C17.8554 1.82631 17.8654 1.81151 17.8756 1.79677C17.8853 1.78233 17.8953 1.76795 17.9054 1.75369C17.9153 1.7397 17.925 1.72573 17.9352 1.71193C17.9452 1.69856 17.9552 1.68535 17.9652 1.67215C17.975 1.65916 17.985 1.64625 17.995 1.63343C18.005 1.6208 18.0148 1.60814 18.0249 1.59567C18.0348 1.58355 18.0448 1.57162 18.0548 1.55964C18.0646 1.54783 18.0748 1.53611 18.0848 1.52447C18.0946 1.51297 18.1045 1.50148 18.1146 1.49012C18.1244 1.47906 18.1345 1.46819 18.1445 1.45725C18.1544 1.44643 18.1642 1.43559 18.1744 1.4249C18.1841 1.41444 18.1941 1.40408 18.2042 1.39374C18.2141 1.38353 18.2241 1.37341 18.2341 1.36333C18.2441 1.3534 18.254 1.34347 18.264 1.33364C18.2738 1.32401 18.2838 1.3145 18.2938 1.305C18.3038 1.29555 18.3136 1.286 18.3237 1.27669C18.3337 1.26757 18.3437 1.25867 18.3537 1.24967C18.3636 1.24073 18.3735 1.23176 18.3836 1.22293C18.3935 1.21424 18.4035 1.20573 18.4135 1.19718C18.4233 1.18869 18.4332 1.18021 18.4433 1.17183C18.4532 1.16358 18.4632 1.15545 18.4732 1.14733C18.4832 1.13926 18.4931 1.13123 18.5031 1.12329C18.5131 1.11543 18.5229 1.10766 18.5329 1.09994L18.5628 1.07711L18.5928 1.05488C18.6027 1.04759 18.6127 1.04035 18.6227 1.03318C18.6325 1.02608 18.6425 1.01902 18.6525 1.01201L18.6824 0.991396C18.6923 0.98464 18.7021 0.977931 18.7121 0.971285L18.7421 0.951645L18.772 0.93251C18.782 0.926235 18.7919 0.919984 18.8019 0.91382L18.8317 0.895687C18.8417 0.889695 18.8517 0.883704 18.8617 0.877837C18.8716 0.872018 18.8816 0.866361 18.8916 0.860666C18.9015 0.85496 18.9113 0.849215 18.9215 0.843632C18.9313 0.838122 18.9413 0.832811 18.9513 0.827401C18.9612 0.82199 18.9711 0.81648 18.9812 0.811181C18.9912 0.805968 19.0012 0.800916 19.0111 0.79579C19.0211 0.790664 19.031 0.785525 19.041 0.780497C19.0508 0.775507 19.0608 0.770677 19.0708 0.765822C19.0807 0.760979 19.0907 0.756125 19.1007 0.751382L19.1307 0.73736C19.1406 0.732765 19.1506 0.728294 19.1606 0.723798C19.1704 0.719326 19.1804 0.71478 19.1904 0.710395C19.2003 0.706071 19.2103 0.701934 19.2203 0.697697C19.2302 0.69346 19.2402 0.689159 19.2502 0.685021C19.26 0.680932 19.2702 0.67703 19.28 0.67304C19.29 0.669075 19.2999 0.66506 19.3099 0.661181L19.3398 0.649755L19.3696 0.638712C19.3798 0.635055 19.3896 0.63135 19.3996 0.627816C19.4095 0.624308 19.4195 0.62101 19.4295 0.6176C19.4394 0.614179 19.4494 0.610696 19.4594 0.607373C19.4692 0.604075 19.4792 0.600973 19.4891 0.597774L19.5191 0.588374C19.5291 0.585286 19.539 0.582184 19.549 0.579208C19.5588 0.576242 19.5688 0.573452 19.5788 0.570598C19.5888 0.567707 19.5987 0.564718 19.6087 0.561952C19.6186 0.559222 19.6286 0.556665 19.6387 0.554021C19.6486 0.551378 19.6586 0.548709 19.6686 0.546151L19.6985 0.538653C19.7083 0.536219 19.7183 0.53391 19.7282 0.531576C19.7382 0.52924 19.7481 0.526745 19.7581 0.524509C19.7681 0.522286 19.7782 0.520273 19.7881 0.518136L19.8179 0.511798L19.8478 0.505819C19.8577 0.503893 19.8677 0.502089 19.8777 0.500261C19.8877 0.498408 19.8977 0.496431 19.9077 0.494678C19.9175 0.492923 19.9275 0.491429 19.9375 0.489797L19.9673 0.48498C19.9773 0.483449 19.9873 0.481855 19.9971 0.48041C20.0071 0.478965 20.0171 0.477692 20.0271 0.476345C20.0371 0.474999 20.047 0.47353 20.057 0.472282C20.067 0.471034 20.0769 0.469922 20.0869 0.468773L20.1167 0.465451C20.1267 0.464389 20.1366 0.463215 20.1466 0.462251C20.1566 0.461288 20.1666 0.460546 20.1766 0.459682L20.2063 0.4571L20.2362 0.454913C20.2462 0.454222 20.2562 0.453667 20.2661 0.453061C20.2761 0.452481 20.2861 0.451739 20.2961 0.451234C20.3061 0.450727 20.3161 0.450442 20.326 0.450035L20.3558 0.448947C20.3658 0.448638 20.3757 0.448232 20.3857 0.448009C20.3956 0.447798 20.4056 0.447774 20.4157 0.447626C20.4256 0.447478 20.4356 0.447317 20.4456 0.447268L20.4529 0.447169H20.4753H20.5052H20.535H20.565H20.5949H20.6248H20.6546H20.6846H20.7145H20.7442H20.7741H20.8041H20.834H20.8638H20.8937H20.9236H20.9536H20.9833H21.0132H21.0431H21.0731H21.1029H21.1328H21.1627H21.1925H21.2225H21.2523H21.2821H21.312H21.342H21.3719H21.4017H21.4316H21.4616H21.4915H21.5212H21.5511H21.581H21.611H21.6408H21.6707H21.7006H21.7306H21.7603H21.7902H21.82H21.85H21.8799H21.9098H21.9396H21.9695H21.9995H22.0292H22.0591H22.089H22.119H22.1488H22.1787H22.2086H22.2385H22.2685H22.2982H22.3281H22.3579H22.3879H22.4178H22.4477H22.4775H22.5074H22.5373H22.5671H22.597H22.6269H22.6569H22.6867H22.7166H22.7463H22.7763H22.8062H22.8361H22.866H22.8959H22.9258H22.9557H22.9856H23.0154H23.0453H23.0752H23.105H23.1349H23.1649H23.1948H23.2246H23.2544H23.2844H23.3142H23.3441H23.374H23.4038H23.4338H23.4637H23.4936H23.5233H23.5533H23.5832H23.6131H23.6429H23.6729H23.7028H23.7327H23.7625H23.7923H23.8223H23.8521H23.882H23.9119H23.9419H23.9717H24.0016H24.0313H24.0613H24.0912H24.1211H24.1509H24.1808H24.2108H24.2407H24.2706H24.3003H24.3303H24.3602H24.39H24.4199H24.4498H24.4798H24.5096H24.5395H24.5694H24.5992H24.6291H24.659H24.6888H24.7188H24.7487H24.7786H24.8084H24.8382H24.8682H24.8981H24.9279H24.9578H24.9878V0.447144Z" fill="url(#paint0_linear_302_648)"/>
<path fill-rule="evenodd" clip-rule="evenodd" d="M0.295964 10.91C0.274664 10.9001 0.253234 10.8903 0.231934 10.8802V3.45412C0.231934 3.24474 0.254005 3.04017 0.295964 2.84278C0.305074 2.80044 0.315084 2.75844 0.325863 2.71673C0.335102 2.681 0.34511 2.64557 0.355632 2.61038C0.365128 2.57902 0.375009 2.54788 0.385531 2.51695C0.395027 2.48864 0.404907 2.46046 0.415301 2.4325C0.424924 2.40665 0.434806 2.38092 0.445199 2.3554C0.454823 2.33154 0.464703 2.30775 0.474969 2.28418C0.484722 2.26196 0.494601 2.23987 0.504866 2.21793C0.51449 2.19708 0.524499 2.1764 0.534636 2.1558C0.544389 2.13613 0.554398 2.1166 0.564535 2.09717C0.574288 2.07849 0.584168 2.05996 0.594305 2.04155C0.604057 2.02377 0.614066 2.0061 0.624074 1.98855C0.633956 1.97154 0.643836 1.95463 0.653973 1.93784C0.663726 1.92154 0.673735 1.90527 0.683743 1.88917C0.693624 1.87357 0.703505 1.85811 0.713641 1.84272C0.723394 1.8278 0.733403 1.81299 0.743411 1.79823C0.753293 1.7838 0.763172 1.76942 0.773309 1.75515C0.78319 1.74116 0.792941 1.72718 0.80308 1.71334C0.81296 1.69999 0.822969 1.68682 0.832977 1.6736C0.842859 1.66062 0.852739 1.64773 0.862748 1.63491C0.872628 1.6223 0.882509 1.60959 0.892645 1.59714C0.902398 1.58504 0.912407 1.57313 0.922417 1.56117C0.932297 1.54936 0.942177 1.5376 0.952314 1.52594C0.962196 1.51446 0.972076 1.50301 0.982085 1.49169C0.991965 1.48059 1.00197 1.4697 1.01198 1.45875C1.02186 1.44791 1.03174 1.43708 1.04175 1.4264C1.05163 1.41594 1.06164 1.40562 1.07165 1.39529C1.08153 1.38507 1.09141 1.37495 1.10142 1.36487C1.1113 1.35492 1.12118 1.34499 1.13119 1.33519C1.14107 1.32554 1.15108 1.31604 1.16109 1.30654C1.17097 1.29708 1.18085 1.28755 1.19086 1.27825C1.20074 1.26912 1.21075 1.26023 1.22076 1.25124C1.23064 1.24226 1.24052 1.23327 1.25053 1.22443C1.26041 1.21577 1.27042 1.20729 1.28043 1.19875C1.29031 1.19025 1.30019 1.18174 1.3102 1.17337C1.32007 1.16512 1.33009 1.15701 1.34009 1.14888C1.34997 1.14083 1.35985 1.13276 1.36986 1.12483C1.37974 1.11699 1.38976 1.10922 1.39976 1.10147C1.40964 1.0938 1.41952 1.08619 1.42953 1.07865C1.43942 1.07116 1.44942 1.06379 1.45943 1.05642C1.46931 1.04913 1.47919 1.04187 1.4892 1.03469L1.5191 1.01358C1.52898 1.00663 1.53886 0.999724 1.54886 0.992893C1.55874 0.986135 1.56876 0.979441 1.57877 0.972807C1.58865 0.966185 1.59853 0.959626 1.60853 0.953128C1.61842 0.946705 1.62843 0.940381 1.63843 0.934056C1.64831 0.927781 1.65819 0.921444 1.6682 0.915268C1.67809 0.909152 1.68809 0.903186 1.69797 0.897182C1.70798 0.891192 1.71786 0.885126 1.72788 0.879259C1.73776 0.873465 1.74776 0.867832 1.75764 0.862125C1.76765 0.85643 1.77753 0.850637 1.78753 0.845028C1.79742 0.83952 1.80743 0.834257 1.81731 0.828834C1.82732 0.823424 1.8372 0.817939 1.8472 0.812628C1.85709 0.807378 1.8671 0.802325 1.87698 0.797212C1.88698 0.792086 1.89686 0.786934 1.90688 0.781907C1.91676 0.776929 1.92664 0.772048 1.93665 0.767169L1.96655 0.752778C1.97643 0.748035 1.98631 0.743304 1.99631 0.738684C2.00619 0.734089 2.0162 0.729641 2.02622 0.725145C2.0361 0.720637 2.04597 0.716054 2.05598 0.711669C2.06586 0.70732 2.07588 0.70323 2.08588 0.698993C2.09576 0.694756 2.10564 0.690458 2.11565 0.68632C2.12553 0.682231 2.13555 0.678278 2.14555 0.674288L2.17532 0.662455L2.20509 0.650954L2.23499 0.639935C2.24486 0.636279 2.25474 0.632512 2.26476 0.628941C2.27464 0.625434 2.28465 0.62216 2.29465 0.618751C2.30453 0.615329 2.31442 0.611871 2.32443 0.608547L2.35432 0.598849L2.3841 0.589449C2.3941 0.586374 2.40398 0.583224 2.41399 0.580234C2.42388 0.577282 2.43388 0.574466 2.44376 0.571599C2.45377 0.568709 2.46365 0.565782 2.47366 0.56299C2.48353 0.560222 2.49342 0.557653 2.50343 0.554985L2.53332 0.547116C2.5432 0.54456 2.55309 0.541966 2.5631 0.539507C2.57298 0.537061 2.58299 0.534826 2.59286 0.532466C2.60288 0.530107 2.61276 0.527649 2.62277 0.525389C2.63265 0.523152 2.64265 0.521064 2.65253 0.518928L2.68243 0.512615C2.69231 0.510552 2.70232 0.508452 2.7122 0.506513C2.72222 0.504585 2.73209 0.502807 2.7421 0.500955C2.75198 0.499102 2.76199 0.497174 2.77188 0.49542C2.78188 0.493665 2.79176 0.492072 2.80177 0.490416L2.83153 0.485612C2.84155 0.484068 2.85143 0.482412 2.86144 0.480943C2.87132 0.479472 2.88132 0.47825 2.8912 0.476878C2.90109 0.475532 2.9111 0.474086 2.9211 0.472815L2.95088 0.469182L2.98077 0.465885C2.99065 0.464798 3.00053 0.46355 3.01055 0.462561C3.02043 0.461573 3.03043 0.460857 3.04031 0.459968L3.07022 0.457409C3.0801 0.456595 3.0901 0.455805 3.09998 0.455102C3.10999 0.454409 3.11988 0.453853 3.12988 0.453248C3.13989 0.452654 3.14977 0.45195 3.15965 0.451419C3.16967 0.450901 3.17955 0.45053 3.18955 0.450098L3.21932 0.448999C3.22932 0.448666 3.2392 0.448159 3.24922 0.447911C3.2591 0.447676 3.2691 0.447702 3.27898 0.447553C3.28899 0.447405 3.29888 0.447244 3.30889 0.447195L3.3221 0.447021H3.33865H3.36856H3.39832H3.4281H3.45799H3.48776H3.51767H3.54743H3.57732H3.6071H3.63699H3.66677H3.69667H3.72643H3.75634H3.7861H3.81599H3.84577H3.87567H3.90544H3.9352H3.96511H3.99488H4.02477H4.05455H4.08444H4.11422H4.14411H4.17388H4.20378H4.23355H4.26344H4.29322H4.32311H4.35289H4.38278H4.41255H4.44245H4.47222H4.50199H4.53189H4.56167H4.59156H4.62132H4.65123H4.68099H4.71089H4.74066H4.77056H4.80034H4.83023H4.86001H4.8899H4.91967H4.94957H4.97934H5.00911H5.03901H5.06877H5.09868H5.12844H5.15834H5.18811H5.21801H5.24778H5.27768H5.30744H5.33735H5.36711H5.39689H5.42678H5.45656H5.48645H5.51622H5.54611H5.57589H5.60578H5.63556H5.66545H5.69523H5.72513H5.75489H5.7848H5.81456H5.84434H5.87423H5.90399H5.9339H5.96367H5.99357H6.02334H6.05323H6.08301H6.1129H6.14268H6.17257H6.20234H6.23224H6.26201H6.29178H6.32168H6.35145H6.38135H6.41111H6.44102H6.47078H6.50068H6.53045H6.56035H6.59013H6.62002H6.64978H6.67969H6.70945H6.73923H6.76913H6.79889H6.8288H6.85856H6.88845H6.91823H6.94813H6.9779H7.0078H7.03756H7.06747H7.09723H7.12714H7.1569H7.1868H7.21657H7.24647H7.27624H7.30601H7.3359H7.36568H7.39557H7.42535H7.45524H7.48502H7.51491H7.54468H7.57459H7.60435H7.63424H7.66402H7.69391H7.72369H7.75345H7.78336H7.81313H7.84302H7.8683V15.4816C7.8683 15.6122 7.8597 15.7411 7.84302 15.8674C7.83494 15.9283 7.82493 15.9886 7.81313 16.0482C7.80427 16.0936 7.79439 16.1386 7.78336 16.1832C7.77411 16.2208 7.76423 16.2582 7.75345 16.2952C7.74409 16.3277 7.73409 16.3599 7.72369 16.3919C7.71419 16.4209 7.70418 16.4497 7.69391 16.4785C7.6843 16.5048 7.67428 16.5313 7.66402 16.5574C7.65439 16.5818 7.64439 16.606 7.63424 16.6301C7.62449 16.6529 7.61461 16.6754 7.60435 16.6978C7.59473 16.719 7.58472 16.7401 7.57459 16.7612C7.56482 16.7813 7.55482 16.8012 7.54468 16.821C7.53493 16.84 7.52505 16.8588 7.51491 16.8777C7.50516 16.8957 7.49515 16.9136 7.48502 16.9315C7.47526 16.9488 7.46538 16.966 7.45524 16.983C7.44549 16.9994 7.43548 17.0158 7.42535 17.0321C7.4156 17.0478 7.40559 17.0633 7.39557 17.0789C7.38569 17.0941 7.37581 17.1091 7.36568 17.1241C7.3558 17.1388 7.34605 17.1533 7.3359 17.1678C7.32602 17.182 7.31615 17.1959 7.30601 17.2097C7.29626 17.2233 7.28624 17.2367 7.27624 17.2501C7.26636 17.2632 7.25648 17.2763 7.24647 17.2892C7.23659 17.3019 7.22659 17.3146 7.21657 17.3271C7.20669 17.3394 7.19681 17.3516 7.1868 17.3636C7.17692 17.3756 7.16705 17.3875 7.1569 17.3993C7.14715 17.4108 7.13714 17.4221 7.12714 17.4335C7.11726 17.4448 7.10724 17.4559 7.09723 17.467C7.08735 17.4779 7.07747 17.4889 7.06747 17.4996C7.05759 17.5102 7.04757 17.5205 7.03756 17.5311C7.02769 17.5412 7.01781 17.5516 7.0078 17.5617C6.99791 17.5717 6.9879 17.5816 6.9779 17.5913C6.96802 17.6011 6.95814 17.611 6.94813 17.6206C6.93824 17.63 6.92824 17.6395 6.91823 17.6489C6.90835 17.658 6.89847 17.6671 6.88845 17.6762C6.87859 17.6853 6.8687 17.6943 6.85856 17.7032C6.84881 17.7118 6.8388 17.7205 6.8288 17.7292C6.81878 17.7376 6.80903 17.7463 6.79889 17.7547C6.78914 17.763 6.77901 17.7711 6.76913 17.7793C6.75924 17.7874 6.74936 17.7957 6.73923 17.8038C6.72947 17.8115 6.71947 17.8193 6.70945 17.8271C6.69957 17.8348 6.68969 17.8427 6.67969 17.8503C6.66981 17.8577 6.6598 17.8651 6.64978 17.8724C6.63991 17.8799 6.63003 17.8872 6.62002 17.8945C6.61014 17.9016 6.60013 17.9085 6.59013 17.9155C6.58024 17.9226 6.57036 17.9297 6.56035 17.9365C6.55047 17.9434 6.54047 17.9501 6.53045 17.9567C6.52057 17.9634 6.51069 17.9701 6.50068 17.9767C6.4908 17.9831 6.4808 17.9895 6.47078 17.9957C6.4609 18.0021 6.45102 18.0086 6.44102 18.0148C6.43114 18.0209 6.42113 18.0268 6.41111 18.0329C6.40123 18.039 6.39136 18.0449 6.38135 18.0509C6.37147 18.0568 6.36145 18.0625 6.35145 18.0682C6.34157 18.0739 6.33169 18.0796 6.32168 18.0853C6.3118 18.0909 6.30178 18.0964 6.29178 18.1018C6.2819 18.1073 6.27202 18.1127 6.26201 18.118C6.25213 18.1233 6.24213 18.1285 6.23224 18.1337L6.20234 18.1491C6.19245 18.1541 6.18245 18.1591 6.17257 18.164C6.16256 18.1689 6.15268 18.1736 6.14268 18.1784C6.1328 18.1831 6.12291 18.1881 6.1129 18.1928C6.10302 18.1973 6.09302 18.2018 6.08301 18.2063C6.07313 18.2107 6.06324 18.2153 6.05323 18.2197C6.04335 18.2242 6.03335 18.2284 6.02334 18.2327L5.99357 18.2453L5.96367 18.2576C5.95378 18.2617 5.94378 18.2655 5.9339 18.2694C5.92389 18.2734 5.91401 18.2774 5.90399 18.2812C5.89411 18.285 5.88424 18.2885 5.87423 18.2922C5.86422 18.2959 5.85434 18.2995 5.84434 18.3032C5.83445 18.3068 5.82457 18.3102 5.81456 18.3137L5.7848 18.3239L5.75489 18.3339C5.74502 18.337 5.73501 18.3401 5.72513 18.3432C5.71511 18.3463 5.70523 18.3494 5.69523 18.3526C5.68535 18.3555 5.67534 18.3584 5.66545 18.3612L5.63556 18.3698L5.60578 18.3782C5.59578 18.3807 5.5859 18.3834 5.57589 18.3859C5.56601 18.3886 5.55613 18.3912 5.54611 18.3937C5.53624 18.3963 5.52623 18.3985 5.51622 18.4009C5.50634 18.4033 5.49645 18.4056 5.48645 18.408L5.45656 18.4146L5.42678 18.4209C5.41677 18.423 5.40689 18.4252 5.39689 18.4272C5.38701 18.4291 5.37699 18.4309 5.36711 18.4328C5.35723 18.4346 5.34723 18.4366 5.33735 18.4384L5.30744 18.4436C5.29757 18.4452 5.28756 18.4467 5.27768 18.4484C5.26767 18.4499 5.25778 18.4517 5.24778 18.4532C5.2379 18.4546 5.22789 18.4558 5.21801 18.4574L5.18811 18.4613C5.17823 18.4627 5.16822 18.464 5.15834 18.4651C5.14834 18.4664 5.13845 18.4674 5.12844 18.4685C5.11856 18.4695 5.10855 18.4708 5.09868 18.4718C5.08867 18.4728 5.07878 18.4736 5.06877 18.4746L5.03901 18.4773C5.02899 18.478 5.01911 18.4789 5.00911 18.4797C4.99923 18.4804 4.98922 18.4809 4.97934 18.4816L4.94957 18.4835L4.91967 18.4849C4.90978 18.4854 4.89978 18.4856 4.8899 18.486C4.87989 18.4864 4.87001 18.4869 4.86001 18.4871C4.85013 18.4874 4.84011 18.4875 4.83023 18.4878L4.80034 18.4881C4.79109 18.4881 4.78198 18.4884 4.77274 18.4884H4.77056H4.74066H4.71089H4.68099H4.65123H4.62132H4.59156H4.56167H4.53189H4.50199H4.47222H4.44245H4.41255H4.38278H4.35289H4.32311H4.29322H4.26344H4.23355H4.20378H4.17388H4.14411H4.11422H4.08444H4.05455H4.02477H3.99488H3.96511H3.9352H3.90544H3.87567H3.84577H3.81599H3.7861H3.75634H3.72643H3.69667H3.66677H3.63699H3.6071H3.57732H3.54743H3.51767H3.48776H3.45799H3.4281H3.39832H3.36856H3.33865H3.30889H3.27898H3.24922H3.21932H3.18955H3.15965H3.12988H3.09998H3.07022H3.04031H3.01055H2.98077H2.95088H2.9211H2.8912H2.86144H2.83153H2.80177H2.77188H2.7421H2.7122H2.68243H2.65253H2.62277H2.59286H2.5631H2.53332H2.50343H2.47366H2.44376H2.41399H2.3841H2.35432H2.32443H2.29465H2.26476H2.23499H2.20509H2.17532H2.14555H2.11565H2.08588H2.05598H2.02622H1.99631H1.96655H1.93665H1.90688H1.87698H1.8472H1.81731H1.78753H1.75764H1.72788H1.69797H1.6682H1.63843H1.60853H1.57877H1.54886H1.5191H1.4892H1.45943H1.42953H1.39976H1.36986H1.34009H1.3102H1.28043H1.25053H1.22076H1.19086H1.16109H1.13119H1.10142H1.07165H1.04175H1.01198H0.982085H0.952314H0.922417H0.892645H0.862748H0.832977H0.80308H0.773309H0.743411H0.713641H0.683743H0.653973H0.624074H0.594305H0.564535H0.534636H0.504866H0.474969H0.445199H0.415301H0.385531H0.355632H0.325863H0.295964H0.231934V12.1515C0.231934 12.1515 0.254005 12.1574 0.295964 12.1677L0.325863 12.1749L0.355632 12.182L0.385531 12.1889L0.415301 12.1958L0.445199 12.2025L0.474969 12.2092L0.504866 12.2157L0.534636 12.2221L0.564535 12.2286L0.594305 12.2349L0.624074 12.241L0.653973 12.2471L0.683743 12.2531L0.713641 12.2591L0.743411 12.2649L0.773309 12.2707L0.80308 12.2765L0.832977 12.2821L0.862748 12.2877L0.892645 12.2932L0.922417 12.2986L0.952314 12.3039L0.982085 12.3092L1.01198 12.3145L1.04175 12.3196L1.07165 12.3247L1.10142 12.3297L1.13119 12.3347L1.16109 12.3396L1.19086 12.3444L1.22076 12.3491L1.25053 12.3538L1.28043 12.3584L1.3102 12.363L1.34009 12.3675L1.36986 12.372L1.39976 12.3763L1.42953 12.3806L1.45943 12.3848L1.4892 12.389L1.5191 12.3931L1.54886 12.3972L1.57877 12.4012L1.60853 12.4051L1.63843 12.409L1.6682 12.4127L1.69797 12.4166L1.72788 12.4201L1.75764 12.4239L1.78753 12.4273L1.81731 12.4309L1.8472 12.4342L1.87698 12.4377L1.90688 12.4409L1.93665 12.4442L1.96655 12.4473L1.99631 12.4504L2.02622 12.4535L2.05598 12.4565L2.08588 12.4594L2.11565 12.4623L2.14555 12.4651L2.17532 12.4678L2.20509 12.4705L2.23499 12.4733L2.26476 12.4757L2.29465 12.4782L2.32443 12.4807L2.35432 12.483L2.3841 12.4854L2.41399 12.4875L2.44376 12.4897L2.47366 12.4918L2.50343 12.4939L2.53332 12.4959L2.5631 12.4977L2.59286 12.4997L2.62277 12.5014L2.65253 12.5032L2.68243 12.5049L2.7122 12.5064L2.7421 12.508L2.77188 12.5095L2.80177 12.5108L2.83153 12.5122L2.86144 12.5134L2.8912 12.5146L2.9211 12.5159L2.95088 12.5169L2.98077 12.5179L3.01055 12.5189L3.04031 12.5197L3.07022 12.5206L3.09998 12.5213L3.12988 12.5219L3.15965 12.5226L3.18955 12.523L3.21932 12.5235L3.24922 12.524L3.27898 12.5243L3.30889 12.5247L3.33865 12.5248L3.36856 12.5249L3.39832 12.525H3.40988L3.4281 12.5249L3.45799 12.5248L3.48776 12.5245L3.51767 12.5244L3.54743 12.5243L3.57732 12.5237L3.6071 12.5232L3.63699 12.5227L3.66677 12.5222L3.69667 12.5214L3.72643 12.5205L3.75634 12.5196L3.7861 12.5187L3.81599 12.5177L3.84577 12.5165L3.87567 12.5153L3.90544 12.5139L3.9352 12.5127L3.96511 12.5111L3.99488 12.5093L4.02477 12.5077L4.05455 12.506L4.08444 12.504L4.11422 12.5019L4.14411 12.4999L4.17388 12.4979L4.20378 12.4955L4.23355 12.493L4.26344 12.4906L4.29322 12.488L4.32311 12.4852L4.35289 12.4823L4.38278 12.4793L4.41255 12.4764L4.44245 12.4731L4.47222 12.4698L4.50199 12.4664L4.53189 12.463L4.56167 12.4592L4.59156 12.4554L4.62132 12.4514L4.65123 12.4476C4.66123 12.4461 4.67098 12.4446 4.68099 12.4431L4.71089 12.4388L4.74066 12.4345L4.77056 12.4298C4.78057 12.4283 4.79032 12.4266 4.80034 12.425L4.83023 12.4201C4.84011 12.4184 4.85024 12.4169 4.86001 12.4152C4.87001 12.4135 4.87989 12.4116 4.8899 12.4099L4.91967 12.4045L4.94957 12.399L4.97934 12.3933C4.98935 12.3914 4.99923 12.3894 5.00911 12.3874L5.03901 12.3814L5.06877 12.3753C5.07892 12.3732 5.08867 12.371 5.09868 12.3689L5.12844 12.3623C5.13832 12.3601 5.14847 12.358 5.15834 12.3558C5.16835 12.3534 5.1781 12.3511 5.18811 12.3488L5.21801 12.3416C5.22789 12.3391 5.23802 12.3369 5.24778 12.3344C5.25778 12.3319 5.26767 12.3294 5.27768 12.3269L5.30744 12.3191C5.31732 12.3165 5.32747 12.3139 5.33735 12.3113C5.34735 12.3086 5.35723 12.3059 5.36711 12.3032L5.39689 12.2948C5.40689 12.2919 5.4169 12.2892 5.42678 12.2862L5.45656 12.2775L5.48645 12.2683C5.49634 12.2652 5.50647 12.2624 5.51622 12.2592L5.54611 12.2496L5.57589 12.2398C5.5859 12.2365 5.5959 12.2332 5.60578 12.2299C5.6158 12.2266 5.62555 12.223 5.63556 12.2194L5.66545 12.2089C5.67534 12.2053 5.68535 12.2018 5.69523 12.1982C5.70536 12.1945 5.71511 12.1906 5.72513 12.1868C5.73501 12.1831 5.74502 12.1793 5.75489 12.1754L5.7848 12.1637L5.81456 12.1515C5.82444 12.1475 5.83459 12.1436 5.84434 12.1394C5.85447 12.1352 5.86422 12.1307 5.87423 12.1264L5.90399 12.1133L5.9339 12.0998C5.9439 12.0953 5.95378 12.0906 5.96367 12.0859C5.97368 12.0812 5.98381 12.0766 5.99357 12.0719C6.0037 12.067 6.01345 12.0619 6.02334 12.057C6.03335 12.052 6.04335 12.0471 6.05323 12.042C6.06324 12.037 6.07313 12.0317 6.08301 12.0265C6.09302 12.0212 6.10302 12.0158 6.1129 12.0105C6.12291 12.0051 6.1328 11.9997 6.14268 11.9941C6.15268 11.9885 6.16269 11.9827 6.17257 11.9771C6.18245 11.9714 6.19245 11.9656 6.20234 11.9598C6.21248 11.9538 6.22223 11.9477 6.23224 11.9416C6.24213 11.9356 6.25226 11.9295 6.26201 11.9233C6.27215 11.9169 6.2819 11.9105 6.29178 11.9039C6.30178 11.8975 6.31193 11.8911 6.32168 11.8844C6.33181 11.8776 6.34157 11.8707 6.35145 11.8639C6.36145 11.857 6.3716 11.8499 6.38135 11.8429C6.39148 11.8357 6.40123 11.8283 6.41111 11.821C6.42126 11.8136 6.43114 11.8061 6.44102 11.7986C6.45102 11.7909 6.46103 11.7831 6.47078 11.7752C6.48091 11.7672 6.4908 11.7591 6.50068 11.751C6.51069 11.7427 6.5207 11.7344 6.53045 11.726C6.54059 11.7174 6.55047 11.7086 6.56035 11.6999C6.57036 11.691 6.58036 11.6821 6.59013 11.6731C6.60026 11.6637 6.61014 11.6543 6.62002 11.6448C6.63003 11.635 6.64003 11.6252 6.64978 11.6154C6.6598 11.6054 6.66993 11.5954 6.67969 11.5851C6.68982 11.5745 6.69957 11.5637 6.70945 11.5529C6.7196 11.5417 6.72947 11.5306 6.73923 11.5194C6.74936 11.5078 6.75938 11.4962 6.76913 11.4844C6.77926 11.4723 6.78927 11.4601 6.79889 11.4477C6.80916 11.4348 6.81905 11.4218 6.8288 11.4087C6.83893 11.3951 6.84881 11.3814 6.85856 11.3676C6.86882 11.3532 6.8787 11.3387 6.88845 11.3241C6.8986 11.3088 6.90861 11.2933 6.91823 11.2778C6.92849 11.2615 6.93851 11.2449 6.94813 11.2283C6.9584 11.2107 6.96827 11.1929 6.9779 11.175C6.9883 11.1558 6.99818 11.1366 7.0078 11.1172C7.01806 11.0963 7.02807 11.0752 7.03756 11.0541C7.04795 11.031 7.05797 11.0078 7.06747 10.9844C7.07786 10.9586 7.08786 10.9326 7.09723 10.9063C7.10789 10.8765 7.11777 10.8464 7.12714 10.8161C7.13792 10.7807 7.14791 10.7449 7.1569 10.7087C7.16819 10.6638 7.1782 10.6185 7.1868 10.5725C7.19951 10.5043 7.20939 10.4349 7.21657 10.3646C7.22659 10.2666 7.23145 10.1669 7.23145 10.0655V6.57678H7.21657H7.1868H7.1569H7.12714H7.09723H7.06747H7.03756H7.0078H6.9779H6.94813H6.91823H6.88845H6.85856H6.8288H6.79889H6.76913H6.73923H6.70945H6.67969H6.64978H6.62002H6.59013H6.56035H6.53045H6.50068H6.47078H6.44102H6.41111H6.38135H6.35145H6.32168H6.29178H6.26201H6.23224H6.20234H6.17257H6.14268H6.1129H6.08301H6.05323H6.02334H5.99357H5.96367H5.9339H5.90399H5.87423H5.84434H5.81456H5.7848H5.75489H5.72513H5.69523H5.66545H5.63556H5.60578H5.57589H5.54611H5.51622H5.48645H5.45656H5.42678H5.39689H5.36711H5.33735H5.30744H5.27768H5.24778H5.21801H5.18811H5.15834H5.12844H5.09868H5.06877H5.03901H5.00911H4.97934H4.94957H4.91967H4.8899H4.86001H4.83023H4.80034H4.77056H4.74066H4.71089H4.68099H4.65123H4.62132H4.59156H4.56897V10.0655C4.56897 10.1201 4.56653 10.1738 4.56167 10.2265C4.55563 10.2937 4.54563 10.3591 4.53189 10.4228C4.52342 10.4621 4.51342 10.5006 4.50199 10.5386C4.49301 10.5687 4.48313 10.5984 4.47222 10.6275C4.46298 10.6525 4.45297 10.6768 4.44245 10.701C4.43295 10.7225 4.42307 10.7436 4.41255 10.7645C4.40306 10.7835 4.39318 10.8023 4.38278 10.8207C4.37317 10.8378 4.36315 10.8543 4.35289 10.8709C4.34326 10.8864 4.33338 10.9017 4.32311 10.9168C4.31336 10.9309 4.30348 10.9449 4.29322 10.9587C4.2836 10.9718 4.27359 10.9848 4.26344 10.9976C4.25369 11.0097 4.24369 11.0216 4.23355 11.0333C4.2238 11.0447 4.21392 11.0558 4.20378 11.0668C4.19403 11.0773 4.18402 11.0878 4.17388 11.098C4.16413 11.1079 4.15424 11.1178 4.14411 11.1274C4.13436 11.1367 4.12435 11.146 4.11422 11.155C4.10445 11.1637 4.09445 11.1724 4.08444 11.1809C4.07469 11.1891 4.06468 11.1972 4.05455 11.2052C4.0448 11.213 4.03478 11.2207 4.02477 11.2283C4.01489 11.2356 4.00502 11.2429 3.99488 11.2501C3.98513 11.2571 3.97511 11.2639 3.96511 11.2707C3.95523 11.2774 3.94535 11.2838 3.9352 11.2902C3.92545 11.2965 3.91544 11.3027 3.90544 11.3088C3.89556 11.3147 3.88568 11.3205 3.87567 11.3262C3.86578 11.3317 3.85578 11.3373 3.84577 11.3427C3.83589 11.348 3.82601 11.3532 3.81599 11.3583C3.80613 11.3634 3.79624 11.3683 3.7861 11.3732C3.77622 11.3779 3.76634 11.3826 3.75634 11.3873C3.74645 11.3918 3.73657 11.3963 3.72643 11.4007C3.71656 11.4049 3.70668 11.4092 3.69667 11.4133C3.68678 11.4173 3.67677 11.4212 3.66677 11.4251C3.65701 11.429 3.64701 11.4327 3.63699 11.4362C3.62711 11.44 3.61723 11.4434 3.6071 11.4469C3.59722 11.4503 3.58734 11.4537 3.57732 11.457C3.56744 11.4602 3.55744 11.4633 3.54743 11.4664C3.53768 11.4694 3.52767 11.4722 3.51767 11.475C3.50778 11.4779 3.49777 11.4807 3.48776 11.4834C3.47788 11.486 3.46801 11.4888 3.45799 11.4912C3.44811 11.4937 3.4381 11.496 3.4281 11.4984C3.41834 11.5007 3.40834 11.5029 3.39832 11.5051C3.38844 11.5073 3.37856 11.5094 3.36856 11.5114C3.35855 11.5133 3.34867 11.5153 3.33865 11.5172C3.32877 11.519 3.31889 11.5207 3.30889 11.5223C3.29901 11.5241 3.28899 11.5258 3.27898 11.5273L3.24922 11.5317C3.23934 11.5332 3.22932 11.5345 3.21932 11.5357C3.20944 11.5369 3.19956 11.5383 3.18955 11.5394L3.15965 11.5426C3.14977 11.5436 3.13989 11.5445 3.12988 11.5453C3.11999 11.5462 3.10999 11.5471 3.09998 11.5478C3.0901 11.5485 3.08022 11.5493 3.07022 11.5499C3.06034 11.5505 3.05032 11.551 3.04031 11.5515C3.03043 11.552 3.02055 11.5525 3.01055 11.5529C3.00067 11.5534 2.99065 11.5535 2.98077 11.5538L2.95088 11.5545C2.94099 11.5546 2.93098 11.5547 2.9211 11.5547L2.90981 11.5548H2.8912L2.86144 11.5546L2.83153 11.5542L2.80177 11.5536L2.77188 11.5529L2.7421 11.5519L2.7122 11.5506L2.68243 11.5494L2.65253 11.5479L2.62277 11.5462L2.59286 11.5442L2.5631 11.5422L2.53332 11.54L2.50343 11.5375L2.47366 11.5349L2.44376 11.5322L2.41399 11.5291L2.3841 11.5261L2.35432 11.5227L2.32443 11.5193L2.29465 11.5156L2.26476 11.5117L2.23499 11.5078L2.20509 11.5036L2.17532 11.4993L2.14555 11.4947L2.11565 11.49L2.08588 11.485L2.05598 11.4801L2.02622 11.4748L1.99631 11.4695L1.96655 11.4639L1.93665 11.4582L1.90688 11.4523L1.87698 11.4463L1.8472 11.4401L1.81731 11.4338L1.78753 11.4272L1.75764 11.4206L1.72788 11.4136L1.69797 11.4066L1.6682 11.3994L1.63843 11.3922L1.60853 11.3846L1.57877 11.377L1.54886 11.3692L1.5191 11.3613L1.4892 11.3531L1.45943 11.3448L1.42953 11.3364L1.39976 11.3279L1.36986 11.3191L1.34009 11.3103L1.3102 11.3012L1.28043 11.2921L1.25053 11.2827L1.22076 11.2733L1.19086 11.2637L1.16109 11.2539L1.13119 11.2439L1.10142 11.2339L1.07165 11.2237L1.04175 11.2133L1.01198 11.2029L0.982085 11.1922L0.952314 11.1814L0.922417 11.1705L0.892645 11.1594L0.862748 11.1483L0.832977 11.1369L0.80308 11.1255L0.773309 11.1138L0.743411 11.1021L0.713641 11.0902L0.683743 11.0783L0.653973 11.066L0.624074 11.0538L0.594305 11.0413L0.564535 11.0288L0.534636 11.0161L0.504866 11.0033L0.474969 10.9903L0.445199 10.9773L0.415301 10.9641L0.385531 10.9508L0.355632 10.9373L0.325863 10.9237L0.295964 10.91Z" fill="url(#paint1_linear_302_648)"/>
<path fill-rule="evenodd" clip-rule="evenodd" d="M8.86188 7.3392C8.84019 7.35624 8.81877 7.37341 8.79785 7.39095V3.45424C8.79785 3.24486 8.81992 3.04055 8.86188 2.84326C8.87087 2.80089 8.88088 2.75893 8.89179 2.71723C8.90102 2.68147 8.91102 2.64598 8.92155 2.61075C8.93105 2.57935 8.94093 2.54818 8.95144 2.51722C8.96094 2.48894 8.97083 2.46079 8.98122 2.43289C8.99084 2.40702 9.00072 2.3813 9.01112 2.35576C9.02073 2.33191 9.03061 2.30817 9.04089 2.28459C9.05064 2.26237 9.06052 2.24029 9.07065 2.21833C9.0804 2.19747 9.09042 2.17676 9.10055 2.15617C9.1103 2.13649 9.12018 2.11701 9.13033 2.09756C9.14008 2.07891 9.15009 2.06039 9.16022 2.04193C9.16997 2.02415 9.17998 2.0065 9.19 1.98893C9.19988 1.97194 9.20975 1.955 9.21989 1.93822C9.22964 1.9219 9.23952 1.90566 9.24967 1.88954C9.25954 1.87398 9.26942 1.85852 9.27956 1.84314C9.28931 1.82818 9.29933 1.81339 9.30933 1.79862C9.31921 1.78416 9.32909 1.76981 9.33922 1.75554C9.3491 1.74153 9.35898 1.72753 9.369 1.71373C9.37888 1.70036 9.38889 1.6872 9.39889 1.67402C9.40877 1.66103 9.41865 1.64811 9.42867 1.63528C9.43855 1.62266 9.44843 1.61001 9.45856 1.59755C9.46831 1.58545 9.47846 1.57352 9.48834 1.56156C9.49821 1.54976 9.50822 1.538 9.51823 1.52635C9.52811 1.51485 9.538 1.5034 9.548 1.49207C9.55788 1.481 9.56789 1.47008 9.5779 1.45916C9.58777 1.44833 9.59765 1.43747 9.60767 1.42676C9.61755 1.4163 9.62756 1.40595 9.63744 1.39564C9.64731 1.38544 9.65733 1.37531 9.66734 1.36523C9.67722 1.3553 9.6871 1.34537 9.6971 1.33555C9.70698 1.32592 9.717 1.31642 9.72701 1.30692C9.73689 1.29747 9.74676 1.28795 9.75677 1.27861C9.76665 1.26949 9.77667 1.26059 9.78667 1.2516C9.79655 1.24263 9.80643 1.23363 9.81644 1.2248C9.82633 1.21614 9.83634 1.20763 9.84634 1.19908C9.85622 1.19057 9.8661 1.18209 9.87612 1.17371C9.886 1.16546 9.896 1.15736 9.90601 1.14923C9.91589 1.14116 9.92577 1.13311 9.93577 1.12514C9.94565 1.1173 9.95567 1.10954 9.96568 1.10181C9.97556 1.09413 9.98544 1.08651 9.99544 1.07897C10.0053 1.07151 10.0153 1.06412 10.0254 1.05675C10.0352 1.04947 10.0451 1.0422 10.0551 1.03504C10.065 1.02791 10.075 1.0209 10.085 1.01389C10.0949 1.00696 10.1048 1.00003 10.1148 0.9932C10.1247 0.986442 10.1347 0.979785 10.1447 0.973114C10.1546 0.966505 10.1644 0.959909 10.1745 0.953424C10.1843 0.947001 10.1943 0.940675 10.2044 0.934338C10.2142 0.928039 10.2241 0.921738 10.2341 0.915562C10.244 0.909448 10.254 0.903481 10.264 0.897465C10.2739 0.891474 10.2838 0.885422 10.2938 0.879554C10.3037 0.873724 10.3137 0.868103 10.3237 0.862395C10.3336 0.856701 10.3434 0.850871 10.3535 0.8453C10.3633 0.83979 10.3734 0.83449 10.3834 0.82908C10.3932 0.823669 10.4031 0.81821 10.4131 0.812923C10.423 0.807674 10.433 0.802621 10.4429 0.797469C10.4529 0.792356 10.4628 0.787204 10.4728 0.782177L10.5026 0.767428L10.5325 0.753023C10.5423 0.748305 10.5524 0.74355 10.5622 0.738929C10.5722 0.734334 10.5821 0.729888 10.5921 0.725378C10.602 0.720907 10.6119 0.716287 10.6219 0.711914C10.6318 0.707554 10.6418 0.703464 10.6518 0.699239C10.6617 0.695002 10.6716 0.690692 10.6816 0.686554C10.6914 0.682465 10.7015 0.6785 10.7115 0.67451L10.7412 0.662675C10.7512 0.658796 10.7611 0.65493 10.7711 0.65115C10.781 0.647395 10.791 0.643789 10.8009 0.640132C10.8109 0.636476 10.8208 0.632696 10.8308 0.629138C10.8407 0.62563 10.8507 0.622357 10.8606 0.618947C10.8706 0.615525 10.8805 0.612066 10.8905 0.608744C10.9004 0.605421 10.9104 0.602246 10.9202 0.599046L10.9501 0.589646C10.96 0.586571 10.9699 0.583408 10.9799 0.580406C10.9898 0.577453 10.9998 0.574663 11.0098 0.571796C11.0197 0.568906 11.0296 0.565953 11.0396 0.563161C11.0495 0.560394 11.0595 0.557825 11.0695 0.555145L11.0992 0.547288C11.1091 0.544731 11.1191 0.542137 11.129 0.539679C11.139 0.537258 11.1489 0.534973 11.1589 0.532613C11.1688 0.530253 11.1788 0.527796 11.1887 0.525535C11.1987 0.523299 11.2086 0.521212 11.2186 0.519062L11.2484 0.512762C11.2584 0.510724 11.2682 0.508598 11.2782 0.506659C11.2881 0.504707 11.2981 0.502954 11.308 0.501101C11.318 0.499248 11.3279 0.497296 11.3379 0.495542L11.3677 0.490538L11.3976 0.485746C11.4075 0.48419 11.4175 0.482536 11.4274 0.481065C11.4374 0.479596 11.4472 0.478372 11.4573 0.477C11.4671 0.475654 11.4771 0.474234 11.487 0.472961L11.5169 0.469329L11.5467 0.466007C11.5567 0.46492 11.5666 0.463672 11.5766 0.462684C11.5865 0.461695 11.5965 0.460979 11.6064 0.46009L11.6363 0.457531C11.6461 0.456717 11.6561 0.455927 11.666 0.455224C11.6759 0.454531 11.6859 0.453975 11.6958 0.453371C11.7058 0.452778 11.7157 0.452073 11.7257 0.451541C11.7356 0.451023 11.7456 0.450652 11.7556 0.45022L11.7854 0.449121C11.7954 0.448788 11.8052 0.448281 11.8153 0.448034C11.8251 0.447798 11.8352 0.447824 11.845 0.447676C11.855 0.447527 11.8649 0.447366 11.8749 0.447317L11.888 0.447144H11.9047H11.9346H11.9644H11.9941H12.024H12.0538H12.0837H12.1135H12.1434H12.1731H12.203H12.2328H12.2627H12.2925H12.3224H12.3521H12.382H12.4118H12.4417H12.4715H12.5014H12.5312H12.561H12.5908H12.6207H12.6505H12.6804H12.7102H12.7399H12.7698H12.7996H12.8295H12.8593H12.8892H12.9189H12.9488H12.9786H13.0085H13.0383H13.0682H13.0979H13.1278H13.1576H13.1875H13.2172H13.2472H13.277H13.3067H13.3366H13.3664H13.3963H13.426H13.4559H13.4858H13.5156H13.5454H13.5752H13.6051H13.635H13.6647H13.6946H13.7243H13.7543H13.7841H13.8139H13.8437H13.8737H13.9034H13.9333H13.963H13.993H14.0227H14.0526H14.0824H14.1124H14.1421H14.172H14.2017H14.2317H14.2614H14.2912H14.321H14.3508H14.3808H14.4105H14.4404H14.4701H14.5001H14.5299H14.5597H14.5895H14.6195H14.6492H14.6791H14.7088H14.7388H14.7685H14.7984H14.8281H14.8581H14.8879H14.9176H14.9475H14.9774H15.0072H15.037H15.0668H15.0966H15.1266H15.1563H15.1862H15.2159H15.2459H15.2756H15.3055H15.3352H15.3652H15.395H15.4249H15.4546H15.4846H15.5143H15.5442H15.5739H15.6039H15.6337H15.6635H15.6933H15.7231H15.753H15.7829H15.8126H15.8424H15.8723H15.9021H15.932H15.9617H15.9917H16.0214H16.0513H16.081H16.111H16.1408H16.1706H16.2004H16.2304H16.2601H16.29H16.3197H16.3497H16.3795H16.4093H16.4346V15.4817C16.4346 15.6124 16.4259 15.7411 16.4093 15.8674C16.4013 15.9282 16.3912 15.9885 16.3795 16.048C16.3705 16.0935 16.3605 16.1386 16.3497 16.1832C16.3402 16.2208 16.3304 16.2582 16.3197 16.2953C16.3104 16.3277 16.3004 16.36 16.29 16.3919C16.2805 16.4209 16.2705 16.4498 16.2601 16.4784C16.2505 16.5049 16.2406 16.5311 16.2304 16.5573C16.2206 16.5817 16.2106 16.6059 16.2004 16.6302C16.1908 16.6527 16.1808 16.6753 16.1706 16.6978C16.1609 16.7191 16.151 16.7401 16.1408 16.7611C16.131 16.7812 16.1212 16.8012 16.111 16.8209C16.1012 16.8398 16.0912 16.8588 16.081 16.8776C16.0713 16.8957 16.0614 16.9137 16.0513 16.9315C16.0414 16.9489 16.0316 16.966 16.0214 16.9831C16.0117 16.9994 16.0017 17.0157 15.9917 17.0321C15.982 17.0478 15.9718 17.0634 15.9617 17.079C15.952 17.094 15.942 17.1091 15.932 17.124C15.9221 17.1387 15.9122 17.1534 15.9021 17.1679C15.8924 17.1819 15.8823 17.1957 15.8723 17.2097C15.8625 17.2232 15.8526 17.2367 15.8424 17.25C15.8326 17.2633 15.8226 17.2763 15.8126 17.2892C15.8027 17.302 15.7929 17.3146 15.7829 17.3271C15.773 17.3393 15.763 17.3515 15.753 17.3636C15.7431 17.3755 15.7333 17.3875 15.7231 17.3993C15.7133 17.4108 15.7033 17.4222 15.6933 17.4335C15.6834 17.4448 15.6735 17.4559 15.6635 17.4669C15.6535 17.4778 15.6437 17.4887 15.6337 17.4996C15.6238 17.5101 15.6138 17.5205 15.6039 17.5309C15.5938 17.5413 15.5839 17.5517 15.5739 17.5618C15.5641 17.5718 15.5541 17.5816 15.5442 17.5914C15.5343 17.6012 15.5243 17.6108 15.5143 17.6205C15.5045 17.6299 15.4946 17.6393 15.4846 17.6487C15.4746 17.6579 15.4646 17.6672 15.4546 17.6762C15.4447 17.6852 15.4349 17.6943 15.4249 17.7032C15.415 17.712 15.405 17.7205 15.395 17.7291C15.3851 17.7376 15.3752 17.7464 15.3652 17.7548C15.3554 17.7631 15.3452 17.7712 15.3352 17.7793C15.3254 17.7874 15.3155 17.7958 15.3055 17.8037C15.2956 17.8116 15.2856 17.8193 15.2756 17.8269C15.2658 17.8348 15.2559 17.8425 15.2459 17.8502C15.236 17.8577 15.226 17.865 15.2159 17.8724C15.206 17.8799 15.1962 17.8872 15.1862 17.8944C15.1763 17.9015 15.1663 17.9086 15.1563 17.9156C15.1464 17.9226 15.1366 17.9298 15.1266 17.9365C15.1167 17.9433 15.1067 17.95 15.0966 17.9566C15.0867 17.9633 15.0768 17.9702 15.0668 17.9766C15.057 17.9831 15.047 17.9894 15.037 17.9958C15.0271 18.0021 15.0172 18.0086 15.0072 18.0149C14.9974 18.021 14.9874 18.0268 14.9774 18.0329C14.9674 18.039 14.9575 18.0452 14.9475 18.051C14.9376 18.0568 14.9276 18.0624 14.9176 18.0682C14.9077 18.0739 14.8979 18.0797 14.8879 18.0854C14.878 18.0909 14.868 18.0963 14.8581 18.1018L14.8281 18.118L14.7984 18.1337L14.7685 18.149C14.7587 18.1541 14.7488 18.1592 14.7388 18.164C14.7288 18.1689 14.7188 18.1736 14.7088 18.1784C14.6989 18.1832 14.6891 18.188 14.6791 18.1927C14.6692 18.1974 14.6592 18.2017 14.6492 18.2063C14.6393 18.2107 14.6295 18.2155 14.6195 18.2198C14.6096 18.2243 14.5995 18.2285 14.5895 18.2328L14.5597 18.2454L14.5299 18.2577L14.5001 18.2696C14.4901 18.2734 14.4802 18.2775 14.4701 18.2813C14.4602 18.2851 14.4502 18.2886 14.4404 18.2923C14.4304 18.2958 14.4205 18.2998 14.4105 18.3033C14.4006 18.3069 14.3906 18.3103 14.3808 18.3137L14.3508 18.324L14.321 18.3338C14.3112 18.337 14.3012 18.34 14.2912 18.3432C14.2813 18.3463 14.2714 18.3497 14.2614 18.3526C14.2516 18.3556 14.2416 18.3584 14.2317 18.3613L14.2017 18.3699L14.172 18.3782C14.162 18.3808 14.1521 18.3835 14.1421 18.386C14.1321 18.3887 14.1224 18.3913 14.1124 18.3939C14.1022 18.3963 14.0924 18.3986 14.0824 18.4008C14.0725 18.4034 14.0625 18.4057 14.0526 18.4081L14.0227 18.4148L13.993 18.421C13.983 18.423 13.973 18.4253 13.963 18.4273C13.9531 18.4293 13.9431 18.431 13.9333 18.4329L13.9034 18.4385L13.8737 18.4437C13.8637 18.4453 13.8537 18.4468 13.8437 18.4485C13.8338 18.45 13.8238 18.4518 13.8139 18.4533C13.8039 18.4548 13.7941 18.4559 13.7841 18.4573L13.7543 18.4614C13.7443 18.4628 13.7345 18.4641 13.7243 18.4652C13.7145 18.4665 13.7045 18.4675 13.6946 18.4686C13.6846 18.4697 13.6747 18.4709 13.6647 18.4719C13.6549 18.4729 13.645 18.4738 13.635 18.4748L13.6051 18.4774C13.5951 18.4781 13.5852 18.4791 13.5752 18.4798C13.5654 18.4805 13.5554 18.481 13.5454 18.4817L13.5156 18.4836L13.4858 18.485C13.4758 18.4855 13.4658 18.4857 13.4559 18.4861C13.4459 18.4865 13.436 18.487 13.426 18.4872C13.4162 18.4875 13.4063 18.4876 13.3963 18.4877L13.3664 18.4882C13.3571 18.4882 13.3479 18.4885 13.3387 18.4885H13.3366H13.3067H13.277H13.2472H13.2172H13.1875H13.1576H13.1278H13.0979H13.0682H13.0383H13.0085H12.9786H12.9488H12.9189H12.8892H12.8593H12.8295H12.7996H12.7698H12.7399H12.7102H12.6804H12.6505H12.6207H12.5908H12.561H12.5312H12.5014H12.4715H12.4417H12.4118H12.382H12.3521H12.3224H12.2925H12.2627H12.2328H12.203H12.1731H12.1434H12.1135H12.0837H12.0538H12.024H11.9941H11.9644H11.9346H11.9047H11.8749H11.845H11.8153H11.7854H11.7556H11.7257H11.6958H11.666H11.6363H11.6064H11.5766H11.5467H11.5169H11.487H11.4573H11.4274H11.3976H11.3677H11.3379H11.308H11.2782H11.2484H11.2186H11.1887H11.1589H11.129H11.0992H11.0695H11.0396H11.0098H10.9799H10.9501H10.9202H10.8905H10.8606H10.8308H10.8009H10.7711H10.7412H10.7115H10.6816H10.6518H10.6219H10.5921H10.5622H10.5325H10.5026H10.4728H10.4429H10.4131H10.3834H10.3535H10.3237H10.2938H10.264H10.2341H10.2044H10.1745H10.1447H10.1148H10.085H10.0551H10.0254H9.99544H9.96568H9.93577H9.90601H9.87612H9.84634H9.81644H9.78667H9.75677H9.72701H9.6971H9.66734H9.63744H9.60767H9.5779H9.548H9.51823H9.48834H9.45856H9.42867H9.39889H9.369H9.33922H9.30933H9.27956H9.24967H9.21989H9.19H9.16022H9.13033H9.10055H9.07065H9.04089H9.01112H8.98122H8.95144H8.92155H8.89179H8.86188H8.79785V11.5459C8.81877 11.5634 8.84019 11.5805 8.86188 11.5977C8.87176 11.6054 8.88177 11.6131 8.89179 11.6208C8.90165 11.6283 8.91154 11.6359 8.92155 11.6433C8.93143 11.6507 8.94131 11.658 8.95144 11.6654C8.96119 11.6724 8.97121 11.6795 8.98122 11.6866C8.9911 11.6936 9.0011 11.7005 9.01112 11.7074C9.021 11.7142 9.03088 11.7211 9.04089 11.7278L9.07065 11.7477C9.08054 11.7541 9.09055 11.7605 9.10055 11.7669L9.13033 11.7858C9.14021 11.792 9.15022 11.7982 9.16022 11.8044C9.1701 11.8104 9.18012 11.8163 9.19 11.8223L9.21989 11.8399C9.22977 11.8457 9.23965 11.8516 9.24967 11.8572C9.25954 11.8628 9.26955 11.8684 9.27956 11.8739L9.30933 11.8903L9.33922 11.9064L9.369 11.9221C9.37901 11.9273 9.38889 11.9325 9.39889 11.9375C9.40877 11.9426 9.41879 11.9475 9.42867 11.9525L9.45856 11.9672L9.48834 11.9816L9.51823 11.9956C9.52811 12.0003 9.538 12.0048 9.548 12.0094L9.5779 12.0229L9.60767 12.0361L9.63744 12.049L9.66734 12.0615L9.6971 12.0739L9.72701 12.086L9.75677 12.0979L9.78667 12.1095L9.81644 12.1208L9.84634 12.132C9.85622 12.1355 9.8661 12.1392 9.87612 12.1428L9.90601 12.1535C9.91589 12.1569 9.92577 12.1605 9.93577 12.164C9.94565 12.1674 9.95567 12.1707 9.96568 12.1741L9.99544 12.1842L10.0254 12.1938C10.0352 12.1971 10.0451 12.2004 10.0551 12.2036C10.065 12.2067 10.075 12.2098 10.085 12.2129L10.1148 12.2221L10.1447 12.231L10.1745 12.2399L10.2044 12.2484L10.2341 12.257L10.264 12.2651L10.2938 12.2733L10.3237 12.2812L10.3535 12.2888L10.3834 12.2965L10.4131 12.3038L10.4429 12.3111L10.4728 12.3181L10.5026 12.3251L10.5325 12.3318L10.5622 12.3385L10.5921 12.3449L10.6219 12.3512L10.6518 12.3575L10.6816 12.3635L10.7115 12.3694L10.7412 12.3751L10.7711 12.3807L10.8009 12.3863L10.8308 12.3916L10.8606 12.3969L10.8905 12.4019L10.9202 12.4069L10.9501 12.4118L10.9799 12.4164L11.0098 12.4211L11.0396 12.4256L11.0695 12.4299L11.0992 12.4342L11.129 12.4383L11.1589 12.4424L11.1887 12.4462L11.2186 12.45L11.2484 12.4538L11.2782 12.4573L11.308 12.4608L11.3379 12.4641L11.3677 12.4675L11.3976 12.4707L11.4274 12.4736L11.4573 12.4766L11.487 12.4796L11.5169 12.4823L11.5467 12.485L11.5766 12.4875L11.6064 12.4899L11.6363 12.4924L11.666 12.4946L11.6958 12.4969L11.7257 12.4991L11.7556 12.5009L11.7854 12.5029L11.8153 12.5049L11.845 12.5065L11.8749 12.5082L11.9047 12.51L11.9346 12.5113L11.9644 12.5128L11.9941 12.5141L12.024 12.5154L12.0538 12.5165L12.0837 12.5177L12.1135 12.5187L12.1434 12.5196L12.1731 12.5206L12.203 12.5213L12.2328 12.5221L12.2627 12.5227L12.2925 12.5233L12.3224 12.5237L12.3521 12.5243L12.382 12.5245L12.4118 12.5248L12.4417 12.525L12.4715 12.5251L12.5014 12.5253H12.5312L12.561 12.5251L12.5908 12.525L12.6207 12.5249L12.6505 12.5247L12.6804 12.5243L12.7102 12.5238L12.7399 12.5234L12.7698 12.5228L12.7996 12.5223L12.8295 12.5217L12.8593 12.521L12.8892 12.5201L12.9189 12.5193L12.9488 12.5185L12.9786 12.5175L13.0085 12.5165L13.0383 12.5154L13.0682 12.5143L13.0979 12.513L13.1278 12.5118L13.1423 12.5112L13.1576 12.5106L13.1875 12.5091L13.2172 12.5076L13.2472 12.506L13.277 12.5043L13.3067 12.5024L13.3366 12.5006L13.3664 12.4986L13.3963 12.4964L13.426 12.4943L13.4559 12.4919L13.4858 12.4896L13.5156 12.4871L13.5454 12.4845L13.5752 12.4819L13.6051 12.4792L13.635 12.4764L13.6647 12.4735L13.6946 12.4706L13.7243 12.4675L13.7543 12.4644L13.7841 12.4612L13.8139 12.4579L13.8437 12.4546L13.8737 12.4512L13.9034 12.4477L13.9333 12.4441L13.963 12.4405L13.993 12.4368L14.0227 12.4331L14.0526 12.4292L14.0824 12.4253L14.1124 12.4214L14.1421 12.4173L14.172 12.4132L14.2017 12.409L14.2317 12.4048L14.2614 12.4005L14.2912 12.3961L14.321 12.3917L14.3508 12.3872L14.3808 12.3827L14.4105 12.378L14.4404 12.3735L14.4701 12.3686L14.5001 12.3639L14.5299 12.359L14.5597 12.3542L14.5895 12.3492L14.6195 12.3442L14.6492 12.3391L14.6791 12.3339L14.7088 12.3287L14.7388 12.3236L14.7685 12.3182L14.7984 12.3128L14.8281 12.3074L14.8581 12.3019L14.8879 12.2964L14.9176 12.2908L14.9475 12.2851L14.9774 12.2794L15.0072 12.2736L15.037 12.2678L15.0668 12.262L15.0966 12.2561L15.1266 12.25L15.1563 12.244L15.1862 12.2379L15.2159 12.2318L15.2459 12.2255L15.2756 12.2192L15.3055 12.2129L15.3352 12.2065L15.3652 12.2L15.395 12.1934L15.4249 12.1868L15.4546 12.18L15.4846 12.1732L15.5143 12.1664L15.5442 12.1594L15.5738 12.1522V10.8804L15.5442 10.8947L15.5143 10.909L15.4846 10.9231L15.4546 10.9372L15.4249 10.9512L15.395 10.9649L15.3652 10.9786L15.3352 10.992L15.3055 11.0054L15.2756 11.0186L15.2459 11.0317L15.2159 11.0447L15.1862 11.0574L15.1563 11.07L15.1266 11.0825L15.0966 11.0948L15.0668 11.1069L15.037 11.119L15.0072 11.1309L14.9774 11.1425L14.9475 11.1541L14.9176 11.1655L14.8879 11.1766L14.8581 11.1877L14.8281 11.1986L14.7984 11.2093L14.7685 11.2198L14.7388 11.2303L14.7088 11.2406L14.6791 11.2506L14.6492 11.2605L14.6195 11.2702L14.5895 11.2799L14.5597 11.2892L14.5299 11.2985L14.5001 11.3077L14.4701 11.3166L14.4404 11.3253L14.4105 11.3338L14.3808 11.3422L14.3508 11.3505L14.321 11.3587L14.2912 11.3666L14.2614 11.3744L14.2317 11.3819L14.2017 11.3893L14.172 11.3966L14.1421 11.4038L14.1124 11.4107L14.0824 11.4175L14.0526 11.424L14.0227 11.4306L13.993 11.4369L13.963 11.443L13.9333 11.449L13.9034 11.4548L13.8737 11.4605L13.8437 11.4659L13.8139 11.4712L13.7841 11.4764L13.7543 11.4813L13.7243 11.4862L13.6946 11.4908L13.6647 11.4954L13.635 11.4999L13.6051 11.5041L13.5752 11.5081L13.5454 11.512L13.5156 11.5158L13.4858 11.5194L13.4559 11.5228L13.426 11.526L13.3963 11.5293L13.3664 11.5322L13.3366 11.5351L13.3067 11.5377L13.277 11.5403L13.2472 11.5426L13.2291 11.544L13.2172 11.5448L13.1875 11.5467L13.1576 11.5487L13.1278 11.5503L13.0979 11.5516L13.0682 11.553L13.0383 11.554L13.0085 11.555L12.9786 11.5556L12.9488 11.5559L12.9189 11.5563C12.9089 11.5563 12.899 11.5562 12.8892 11.5562H12.8593L12.8295 11.5557L12.7996 11.5551L12.7698 11.5543C12.7598 11.554 12.7499 11.5535 12.7399 11.5531C12.73 11.5527 12.72 11.5525 12.7102 11.552L12.6804 11.5504L12.6505 11.5487L12.6207 11.5467L12.5908 11.5443C12.5809 11.5435 12.5709 11.5429 12.561 11.542C12.551 11.5411 12.5412 11.54 12.5312 11.539L12.5014 11.5362L12.4715 11.5327L12.4417 11.5293L12.4118 11.5254L12.382 11.5214C12.372 11.5199 12.362 11.5185 12.3521 11.517C12.3421 11.5156 12.3323 11.5138 12.3224 11.5122C12.3124 11.5106 12.3024 11.5091 12.2925 11.5074C12.2825 11.5057 12.2726 11.5038 12.2627 11.502C12.2527 11.5002 12.2427 11.4985 12.2328 11.4965C12.2228 11.4947 12.2129 11.4926 12.203 11.4905C12.193 11.4885 12.183 11.4865 12.1731 11.4844C12.1631 11.4823 12.1532 11.48 12.1434 11.4778L12.1135 11.471C12.1035 11.4686 12.0936 11.4661 12.0837 11.4637C12.0737 11.4612 12.0637 11.4587 12.0538 11.4561C12.0438 11.4535 12.0339 11.4508 12.024 11.4481C12.014 11.4454 12.004 11.4427 11.9941 11.4398C11.9841 11.437 11.9742 11.434 11.9644 11.4311C11.9544 11.4281 11.9445 11.4251 11.9346 11.422C11.9246 11.419 11.9146 11.4156 11.9047 11.4124C11.8947 11.4092 11.8847 11.406 11.8749 11.4026C11.8648 11.3992 11.8549 11.3957 11.845 11.3921C11.835 11.3887 11.825 11.3851 11.8153 11.3815C11.8051 11.3778 11.7952 11.374 11.7854 11.3702C11.7754 11.3663 11.7654 11.3625 11.7556 11.3587C11.7455 11.3546 11.7356 11.3504 11.7257 11.3463C11.7157 11.3421 11.7057 11.338 11.6958 11.3337C11.6858 11.3294 11.6759 11.3248 11.666 11.3204C11.656 11.3158 11.6461 11.3114 11.6363 11.3067C11.6262 11.302 11.6162 11.2972 11.6064 11.2923C11.5964 11.2874 11.5865 11.2825 11.5766 11.2774C11.5666 11.2723 11.5566 11.2674 11.5467 11.2621C11.5367 11.2568 11.5268 11.2513 11.5169 11.2459C11.5069 11.2403 11.4969 11.2349 11.487 11.2292C11.477 11.2234 11.4671 11.2176 11.4573 11.2117C11.4472 11.2057 11.4372 11.1997 11.4274 11.1935C11.4175 11.1873 11.4073 11.1812 11.3976 11.1749C11.3874 11.1683 11.3777 11.1616 11.3677 11.155C11.3577 11.1483 11.3478 11.1414 11.3379 11.1346C11.3279 11.1276 11.3179 11.1205 11.308 11.1133C11.298 11.1061 11.2881 11.0985 11.2782 11.091C11.2682 11.0833 11.2582 11.0755 11.2484 11.0678C11.2383 11.0599 11.2283 11.0519 11.2186 11.0438C11.2084 11.0354 11.1986 11.0269 11.1887 11.0182C11.1787 11.0096 11.1688 11.0007 11.1589 10.9918C11.1489 10.9827 11.1389 10.9734 11.129 10.9641C11.119 10.9546 11.109 10.9451 11.0992 10.9353C11.0891 10.9253 11.0792 10.915 11.0695 10.9047C11.0593 10.8942 11.0495 10.8835 11.0396 10.8727C11.0294 10.8616 11.0196 10.8504 11.0098 10.839C10.9997 10.8273 10.9897 10.8154 10.9799 10.8035C10.9698 10.7912 10.9599 10.7786 10.9501 10.766C10.94 10.7529 10.93 10.7397 10.9202 10.7263C10.9101 10.7124 10.9001 10.6983 10.8905 10.684C10.8802 10.6691 10.8703 10.6541 10.8606 10.6389C10.8504 10.6228 10.8404 10.6066 10.8308 10.5903C10.8205 10.5732 10.8107 10.5557 10.8009 10.5381C10.7906 10.5194 10.7808 10.5004 10.7711 10.4813C10.7609 10.4609 10.7509 10.4401 10.7412 10.4192C10.731 10.3968 10.721 10.374 10.7115 10.3509C10.7009 10.3255 10.6911 10.2994 10.6816 10.2731C10.671 10.2441 10.661 10.2146 10.6518 10.1845C10.641 10.1497 10.631 10.1144 10.6219 10.0783C10.6106 10.0336 10.6007 9.98788 10.5921 9.94131C10.5793 9.87226 10.5693 9.80123 10.5622 9.72834C10.5543 9.64423 10.5502 9.55751 10.5502 9.46832C10.5502 9.37901 10.5543 9.29229 10.5622 9.20805C10.5693 9.13516 10.5793 9.06414 10.5921 8.99508C10.6007 8.94852 10.6106 8.90269 10.6219 8.85785C10.631 8.82191 10.641 8.78658 10.6518 8.75174C10.661 8.72172 10.671 8.6922 10.6816 8.66304C10.6911 8.63673 10.7009 8.61066 10.7115 8.5851C10.721 8.562 10.731 8.53927 10.7412 8.51679C10.7509 8.49592 10.7609 8.47515 10.7711 8.45477C10.7808 8.43563 10.7906 8.41672 10.8009 8.39795C10.8107 8.38028 10.8205 8.36288 10.8308 8.3457C10.8404 8.32927 10.8504 8.31308 10.8606 8.29715C10.8703 8.28184 10.8802 8.26689 10.8905 8.25194C10.9001 8.23774 10.9101 8.22366 10.9202 8.2097C10.93 8.19623 10.94 8.18301 10.9501 8.16991C10.9599 8.15732 10.9698 8.14485 10.9799 8.13237C10.9897 8.12051 10.9997 8.10864 11.0098 8.09692C11.0196 8.08555 11.0294 8.07431 11.0396 8.0632C11.0495 8.05244 11.0593 8.0417 11.0695 8.03107C11.0792 8.02083 11.0891 8.01057 11.0992 8.00056C11.109 7.99081 11.119 7.98117 11.129 7.97165C11.1389 7.9624 11.1489 7.95312 11.1589 7.94412C11.1688 7.9351 11.1787 7.92619 11.1887 7.91756C11.1986 7.90903 11.2084 7.90038 11.2186 7.89198C11.2283 7.88395 11.2383 7.87592 11.2484 7.86802C11.2582 7.86024 11.2682 7.85245 11.2782 7.8448C11.2881 7.83726 11.298 7.82972 11.308 7.82244C11.3179 7.81527 11.3279 7.80823 11.3379 7.80119C11.3478 7.79427 11.3577 7.78748 11.3677 7.78068C11.3777 7.77413 11.3874 7.76734 11.3976 7.76092C11.4073 7.7545 11.4175 7.74832 11.4274 7.74215C11.4372 7.73609 11.4472 7.72991 11.4573 7.72398C11.4671 7.71806 11.477 7.71225 11.487 7.70657C11.4969 7.70088 11.5069 7.69533 11.5169 7.68988C11.5268 7.68445 11.5367 7.67889 11.5467 7.67358C11.5566 7.6684 11.5666 7.66334 11.5766 7.65827C11.5865 7.6532 11.5964 7.64826 11.6064 7.64332C11.6162 7.63851 11.6262 7.63368 11.6363 7.629C11.6461 7.62442 11.656 7.61985 11.666 7.61528C11.6759 7.61083 11.6858 7.60639 11.6958 7.60194C11.7057 7.59773 11.7157 7.59354 11.7257 7.58946C11.7356 7.58526 11.7455 7.58107 11.7556 7.57711C11.7654 7.57316 11.7754 7.56932 11.7854 7.5655C11.7952 7.56167 11.8051 7.55783 11.8153 7.55414C11.825 7.55055 11.835 7.54697 11.845 7.54351C11.8549 7.53992 11.8648 7.53647 11.8749 7.53301C11.8847 7.52968 11.8947 7.52646 11.9047 7.52313C11.9146 7.51991 11.9246 7.51671 11.9346 7.51362C11.9445 7.51052 11.9544 7.50756 11.9644 7.5046C11.9742 7.50163 11.9841 7.49867 11.9941 7.49583L12.024 7.48755C12.0339 7.48484 12.0438 7.48211 12.0538 7.47952C12.0637 7.47693 12.0737 7.47446 12.0837 7.47199C12.0936 7.46952 12.1035 7.46704 12.1135 7.4647L12.1434 7.45791C12.1532 7.45568 12.1631 7.45333 12.1731 7.45123C12.183 7.44913 12.193 7.44715 12.203 7.44506C12.2129 7.44309 12.2228 7.44098 12.2328 7.43901C12.2427 7.43715 12.2527 7.43542 12.2627 7.43357C12.2726 7.43184 12.2825 7.42986 12.2925 7.42813C12.3024 7.42653 12.3124 7.42492 12.3224 7.42331C12.3323 7.42171 12.3421 7.42011 12.3521 7.41863L12.382 7.4143L12.4118 7.4101L12.4417 7.40627L12.4715 7.40281L12.5014 7.39948L12.5312 7.39651C12.5412 7.39552 12.551 7.39454 12.561 7.39367C12.5709 7.39269 12.5809 7.39207 12.5908 7.3912L12.6207 7.38898L12.6505 7.387L12.6804 7.38526L12.7102 7.38367C12.72 7.38317 12.73 7.38279 12.7399 7.38243C12.7499 7.38206 12.7598 7.38157 12.7698 7.3812L12.7996 7.38045L12.8295 7.37983L12.8593 7.37946L12.8892 7.37934C12.899 7.37934 12.9089 7.37922 12.9189 7.37922L12.9488 7.37959L12.9786 7.38008L13.0085 7.3807L13.0383 7.38157L13.0682 7.38255L13.0979 7.38391L13.1278 7.38539L13.1576 7.38687L13.1875 7.38885L13.2172 7.39082L13.2291 7.39157L13.2472 7.39293L13.277 7.39527L13.3067 7.39774L13.3366 7.40046L13.3664 7.40319L13.3963 7.40615L13.426 7.40923L13.4559 7.41245L13.4858 7.4159L13.5156 7.41936L13.5454 7.42307L13.5752 7.4269L13.6051 7.43098L13.635 7.43517L13.6647 7.43938L13.6946 7.44395L13.7243 7.44852L13.7543 7.45333L13.7841 7.45827L13.8139 7.46347L13.8437 7.46865L13.8737 7.47408L13.9034 7.47977L13.9333 7.48545L13.963 7.49139L13.993 7.49744L14.0227 7.50374L14.0526 7.51016L14.0824 7.51671L14.1124 7.52337L14.1421 7.53041L14.172 7.53745L14.2017 7.54462L14.2317 7.55203L14.2614 7.5597L14.2912 7.56735L14.321 7.57525L14.3508 7.58341L14.3808 7.59157L14.4105 7.59996L14.4404 7.6086L14.4701 7.61738L14.5001 7.62627L14.5299 7.63529L14.5597 7.64455L14.5895 7.65395L14.6195 7.66358L14.6492 7.67334L14.6791 7.68322L14.7088 7.69336L14.7388 7.7036L14.7685 7.7141L14.7984 7.72473L14.8281 7.73547L14.8581 7.74634L14.8879 7.75746L14.9176 7.76882L14.9475 7.78019L14.9774 7.7918L15.0072 7.80354L15.037 7.81551L15.0668 7.82762L15.0966 7.83986L15.1266 7.85221L15.1563 7.86481L15.1862 7.87753L15.2159 7.89037L15.2459 7.90334L15.2756 7.91657L15.3055 7.92991L15.3352 7.94337L15.3652 7.95696L15.395 7.97079L15.4249 7.98463L15.4546 7.99871L15.4846 8.01291L15.5143 8.02725L15.5442 8.0417L15.5738 8.05615V6.78332L15.5442 6.77615L15.5143 6.76923L15.4846 6.76232L15.4546 6.75553L15.4249 6.74885L15.395 6.74218L15.3652 6.73564L15.3352 6.72909L15.3055 6.72278L15.2756 6.71636L15.2459 6.71007L15.2159 6.70389L15.1862 6.69772L15.1563 6.69154L15.1266 6.68548L15.0966 6.67955L15.0668 6.67363L15.037 6.6677L15.0072 6.6619L14.9774 6.65621L14.9475 6.65052L14.9176 6.64485L14.8879 6.63929L14.8581 6.63373L14.8281 6.62829L14.7984 6.62286L14.7685 6.61742L14.7388 6.61223L14.7088 6.60692L14.6791 6.60173L14.6492 6.59666L14.6195 6.59148L14.5895 6.58654L14.5597 6.5816L14.5299 6.57665L14.5001 6.57184L14.4701 6.56702L14.4404 6.56232L14.4105 6.55775L14.3808 6.55306L14.3508 6.54862L14.321 6.54405L14.2912 6.5396L14.2614 6.53528L14.2317 6.53095L14.2017 6.52676L14.172 6.52268L14.1421 6.51847L14.1124 6.51452L14.0824 6.51057L14.0526 6.50662L14.0227 6.50279L13.993 6.49908L13.963 6.49538L13.9333 6.4918L13.9034 6.48821L13.8737 6.48475L13.8437 6.48129L13.8139 6.47795L13.7841 6.47475L13.7543 6.47153L13.7243 6.46845L13.6946 6.46536L13.6647 6.46252L13.635 6.45955L13.6051 6.45684L13.5752 6.45411L13.5454 6.45152L13.5156 6.44893L13.4858 6.44646L13.4559 6.44411L13.426 6.44189L13.3963 6.43966L13.3664 6.43756L13.3366 6.43558L13.3067 6.4336L13.277 6.43188L13.2472 6.43015L13.2172 6.42855L13.1875 6.42707L13.1576 6.4257L13.1423 6.42497L13.1278 6.42435L13.0979 6.42323L13.0682 6.422L13.0383 6.42076L13.0085 6.41977L12.9786 6.41878L12.9488 6.4178L12.9189 6.41694L12.8892 6.41607L12.8593 6.41533L12.8295 6.41459L12.7996 6.41397L12.7698 6.41335L12.7399 6.41273L12.7102 6.41236L12.6804 6.412L12.6505 6.41163L12.6207 6.41137L12.5908 6.41125L12.561 6.41101H12.5312H12.5014L12.4715 6.41113H12.4417L12.4118 6.4115L12.382 6.41174L12.3521 6.412L12.3224 6.41249L12.2925 6.41298L12.2627 6.41348L12.2328 6.41421L12.203 6.41496L12.1731 6.41569L12.1434 6.41657L12.1135 6.41756L12.0837 6.41854L12.0538 6.41977L12.024 6.42089L11.9941 6.42212L11.9644 6.42348L11.9346 6.42497L11.9047 6.42632L11.8749 6.42806L11.845 6.42978L11.8153 6.43139L11.7854 6.43336L11.7556 6.43534L11.7257 6.43719L11.6958 6.43942L11.666 6.44164L11.6363 6.44386L11.6064 6.44633L11.5766 6.4488L11.5467 6.4514L11.5169 6.45411L11.487 6.45684L11.4573 6.45967L11.4274 6.46264L11.3976 6.4656L11.3677 6.46894L11.3379 6.47215L11.308 6.47548L11.2782 6.47906L11.2484 6.48252L11.2186 6.48636L11.1887 6.49019L11.1589 6.49389L11.129 6.49809L11.0992 6.50217L11.0695 6.50636L11.0396 6.51082L11.0098 6.51527L10.9799 6.51983L10.9501 6.52465L10.9202 6.52947L10.8905 6.53441L10.8606 6.53947L10.8308 6.54478L10.8009 6.5501L10.7711 6.55566L10.7412 6.56134L10.7115 6.5669L10.6816 6.57295L10.6518 6.57888L10.6219 6.58517L10.5921 6.59148L10.5622 6.5979L10.5325 6.60458L10.5026 6.61124L10.4728 6.61828L10.4429 6.62533L10.4131 6.63261L10.3834 6.64002L10.3535 6.64756L10.3237 6.65535L10.2938 6.66325L10.264 6.67128L10.2341 6.67955L10.2044 6.68808L10.1745 6.6966L10.1447 6.70549L10.1148 6.71439L10.085 6.72366C10.075 6.72674 10.065 6.72983 10.0551 6.73292L10.0254 6.74267C10.0153 6.74589 10.0053 6.74911 9.99544 6.75231L9.96568 6.76244L9.93577 6.77258C9.92577 6.77604 9.91589 6.77961 9.90601 6.78307C9.896 6.78665 9.886 6.79011 9.87612 6.79369L9.84634 6.80469C9.83634 6.8084 9.82633 6.81197 9.81644 6.81568L9.78667 6.82717L9.75677 6.83866L9.72701 6.85064L9.6971 6.86262L9.66734 6.87497L9.63744 6.88769L9.60767 6.90055L9.5779 6.91376L9.548 6.92711C9.538 6.93167 9.52811 6.93637 9.51823 6.94107L9.48834 6.95503L9.45856 6.96947L9.42867 6.98417C9.41879 6.98911 9.40877 6.99405 9.39889 6.99912C9.38889 7.00419 9.37901 7.00937 9.369 7.01456L9.33922 7.03026L9.30933 7.0463C9.29933 7.05175 9.28944 7.0573 9.27956 7.06273C9.26955 7.06829 9.25954 7.07385 9.24967 7.07954C9.23965 7.08522 9.22977 7.09103 9.21989 7.0967C9.20988 7.10263 9.19988 7.10845 9.19 7.11437C9.18012 7.12043 9.1701 7.12636 9.16022 7.13241C9.15022 7.13847 9.14021 7.14464 9.13033 7.15094L9.10055 7.16984C9.09055 7.17626 9.08054 7.18256 9.07065 7.18911L9.04089 7.20899C9.03088 7.21578 9.021 7.22259 9.01112 7.22938C9.0011 7.23629 8.9911 7.24321 8.98122 7.25025C8.97121 7.25729 8.96119 7.26434 8.95144 7.2715C8.94131 7.27879 8.93143 7.28607 8.92155 7.29349C8.91154 7.30103 8.90165 7.30855 8.89179 7.31609C8.88177 7.32375 8.87176 7.33142 8.86188 7.3392Z" fill="url(#paint2_linear_302_648)"/>
</g>
<defs>
<linearGradient id="paint0_linear_302_648" x1="17.3628" y1="18.4886" x2="25" y2="18.4886" gradientUnits="userSpaceOnUse">
<stop stop-color="#007B40"/>
<stop offset="1" stop-color="#55B330"/>
</linearGradient>
<linearGradient id="paint1_linear_302_648" x1="0.231934" y1="18.4884" x2="7.8683" y2="18.4884" gradientUnits="userSpaceOnUse">
<stop stop-color="#1D2970"/>
<stop offset="1" stop-color="#006DBA"/>
</linearGradient>
<linearGradient id="paint2_linear_302_648" x1="8.79785" y1="18.4885" x2="16.4346" y2="18.4885" gradientUnits="userSpaceOnUse">
<stop stop-color="#6E2B2F"/>
<stop offset="1" stop-color="#E30138"/>
</linearGradient>
<clipPath id="clip0_302_648">
<rect width="25" height="19" fill="white"/>
</clipPath>
</defs>
</svg>
