<svg width="45" height="15" viewBox="0 0 45 15" fill="none" xmlns="http://www.w3.org/2000/svg">
<mask id="mask0_302_589" style="mask-type:alpha" maskUnits="userSpaceOnUse" x="0" y="1" width="44" height="14">
<path fill-rule="evenodd" clip-rule="evenodd" d="M22.6905 5.44681C22.6654 7.31824 24.4493 8.36259 25.7931 8.98352C27.1738 9.62063 27.6375 10.0291 27.6322 10.5988C27.6218 11.4708 26.5309 11.8555 25.5098 11.8705C23.7286 11.8968 22.6931 11.4145 21.8697 11.0498L21.2281 13.8968C22.0541 14.2578 23.5837 14.5727 25.17 14.5865C28.893 14.5865 31.329 12.8437 31.3422 10.1416C31.3567 6.71234 26.3398 6.52247 26.3741 4.98963C26.386 4.52483 26.8536 4.02894 27.8787 3.90276C28.3859 3.83907 29.7863 3.79031 31.3739 4.48369L31.997 1.72902C31.1433 1.43419 30.0458 1.15186 28.6797 1.15186C25.1752 1.15186 22.7103 2.91826 22.6905 5.44681ZM37.9852 1.38923C37.3054 1.38923 36.7322 1.76526 36.4766 2.34241L31.158 14.3841H34.8786L35.619 12.444H40.1655L40.595 14.3841H43.8742L41.0126 1.38923H37.9852ZM38.5054 4.89961L39.5792 9.77929H36.6386L38.5054 4.89961ZM18.1795 1.38923L15.2468 14.3841H18.7921L21.7234 1.38923H18.1795ZM12.9348 1.38923L9.24459 10.234L7.7519 2.71348C7.57668 1.87394 6.88508 1.38923 6.11702 1.38923H0.0843191L0 1.76651C1.23841 2.02136 2.64546 2.43232 3.49785 2.87216C4.01957 3.14072 4.16844 3.37554 4.33971 4.01392L7.167 14.3841H10.9138L16.6579 1.38923H12.9348Z" fill="white"/>
</mask>
<g mask="url(#mask0_302_589)">
<path d="M-4.59424 2.75653L38.6348 -12.3396L48.4692 12.9825L5.24062 28.0787" fill="url(#paint0_linear_302_589)"/>
</g>
<defs>
<linearGradient id="paint0_linear_302_589" x1="-4.50174" y1="0.0919854" x2="28.3465" y2="-19.6794" gradientUnits="userSpaceOnUse">
<stop stop-color="#222357"/>
<stop offset="1" stop-color="#254AA5"/>
</linearGradient>
</defs>
</svg>
